<svg xmlns="http://www.w3.org/2000/svg" viewBox="0 0 180.13 38.69"><defs><style>.cls-1{opacity:0.5;}.cls-2{fill:#fff;}</style></defs><title>Asset 1</title><g id="Layer_2" data-name="Layer 2"><g id="Layer_1-2" data-name="Layer 1"><g class="cls-1"><path d="M17.72,12c-3.5,1.4-4.6.1-3-3.1a18.13,18.13,0,0,1,6.7-7.8c.8-.5,1.7-1.2,2.8-.6s1.1,2,1,3.1a7.29,7.29,0,0,1-.7,2.4,109.33,109.33,0,0,1-13.7,22.4,12.83,12.83,0,0,1-8.3,4.9c-.9.1-1.8.3-2.3-.4-.7-1.2.4-1.6,1.1-2.3,5.9-5.8,12.6-10.9,16.6-18.4Z"/><path d="M39.82,22.8c-2.4,1.1-4.2,2.2-5.1,4.4-.4.9-.8,2.6-2.4,1.5-1.1-.8-.9-2.1-.3-3.2,1.4-2.4,3.1-4.7,4.3-7.3,1.6-3.4,2.8-7,4.1-10.6.5-1.2.6-3,2.4-2.3s1.7,2.5.8,3.8a52.12,52.12,0,0,0-5.2,10.6c1.1,1.3,1.9.1,2.7-.1,3.6-1.2,4.2.4,3.4,3.4q-.13.46-.3.9c-1,1.9-1.1,5.5-3.7,4.9S40,25.2,39.82,22.8Z"/><path d="M99.92.9c1.3,0,2.4.3,2.8,1.6.3.9-.4,2-1,2-4.6-.3-4.3,3.7-5.5,6.2-2.1,4.3-3.4,9-7.1,12.4-.8.8-1.8,1.8-3,.7-.8-.7-.9-2.3-.2-2.7,6.4-4.1,4.9-12.4,9.7-17.4C96.82,2.4,97.82.8,99.92.9Z"/><path d="M172.82,8.6c-2.9.3-5.2,1.8-8.6,0,5.4-2.9,12.6-1.7,15.1-8.6-.9,3.3,3.8,7.5-2.7,9.3-1.9.5-2.3,5.5-3.9,8.1-1,1.6-1,5.8-4,4.2-2.4-1.3.7-3.6,1.5-5.4C171,13.9,172.42,11.8,172.82,8.6Z"/><path d="M105,20.6a1.89,1.89,0,0,0-.9.4c-1.9,1-3.4,4.4-5.6,2.5-2.4-2,.5-4.3,1.3-6.5,1.8-5.4,6.3-3.4,9.8-4,.7-.1,1.1.7.9,1.4-1,3-2,5.9-3.1,8.8-.2.6-.6,1.3-1.4,1C103.62,23.7,105.72,21.8,105,20.6Z"/><path d="M138.42,12.9c.4,4.2-1.8,5.6-3,7.4a94.71,94.71,0,0,0-8.2,15.8c-.6,1.4-1.4,3-3.2,2.5-2.4-.7-.9-2.5-.4-3.7C126.82,27,131.62,20,138.42,12.9Z"/><path d="M54.72,24.2c-2.4,1-3.6,4.8-5.2,3.6-2.1-1.5.7-4.6.3-7.2-.1-.8,2.9-3.3,5.1-.8.7.8,1.1.1,1.5-.3,1.1-.8,2.1-2.6,3.6-.8,1.1,1.3.3,2.8-.3,4.2a20.63,20.63,0,0,1-1.5,2.5c-.9,1.2-.7,4-2.8,3.3C53.52,28.3,55.22,25.9,54.72,24.2Z"/><path d="M82.12,5a4.22,4.22,0,0,1-.6,1.5c-4.6,4.6-6.6,10.7-9.6,16.2-.6,1.1-1.3,3.4-3.1,2.4-1.4-.7-.3-2.4.3-3.5,2.9-5.6,5.7-11.2,8.6-16.8A2.69,2.69,0,0,1,81,3.2C81.92,3.3,82.12,3.9,82.12,5Z"/><path d="M146.32,17.8c-1.5.3-1.1,2.5-1.3,4.2-.1.8.1,1.8-1,2-1.3.3-1.7-.8-2.1-1.7-1.3-3.2,3.2-10.8,6.7-11.1a2.61,2.61,0,0,1,3.1,3C151.32,16.2,151,19.1,146.32,17.8Z"/><path d="M25.22,19.1c1.8.6,3.1,1.9,2.8,3.9-.5,2.9-1.2,6.1-5.1,6.3a3,3,0,0,1-3.2-3.1C19.62,24.4,23.72,19,25.22,19.1Z"/><path d="M133.82,13.7c-3,1.6-3.9,4.7-5.1,7.6-.1.2-1.3,0-1.9-.2a1.57,1.57,0,0,1-1-2v0a10.26,10.26,0,0,1,5-6.5c.7-.4,1.5-.8,2.3-.1C133.42,12.7,133.52,13.1,133.82,13.7Z"/><path d="M118.42,11.6c1.3,4.5-1.2,7.4-1.8,10.7a1.5,1.5,0,0,1-1.8,1.13l-.1,0c-1.3-.4-1.3-1.5-1-2.4A21.86,21.86,0,0,1,118.42,11.6Z"/><path d="M154.92,21.8a7.62,7.62,0,0,1-2-1.3c-.8-1,3-8.5,4.3-8.5a1.9,1.9,0,0,1,1.3.5c.8,1,.1,1.9-.3,2.7C157.22,17.4,156.12,19.5,154.92,21.8Z"/><path d="M164,15.8a7.69,7.69,0,0,1-1.1,2.8c-1,1.4-1.1,4.7-3.5,3.5-2.1-1,.4-3,.9-4.6a7.42,7.42,0,0,0,.8-2.8c-.2-1.4.1-2.5,1.6-2.2C163.92,12.8,164.22,14.1,164,15.8Z"/><path d="M124,14.1c.1,1.3-.3,2.4-1.7,2.5-1,.1-1.7-.8-1.8-1.9a2.26,2.26,0,0,1,1.8-2.5C123.82,12,124,13.1,124,14.1Z"/><path d="M75.62,23.6a2.3,2.3,0,0,1,2-2.4c.8-.1,1.2.5,1.2,1.2A2.62,2.62,0,0,1,77,25.1C76.12,25.4,75.72,24.6,75.62,23.6Z"/><path class="cls-2" d="M17.72,12c.8-2.2.6-4.9,3.2-6.5.6,3-2.2,4.4-3.1,6.6Z"/><path class="cls-2" d="M101.52,20.2a4.6,4.6,0,0,1,2.8-3.9C104.22,18.3,102.92,19,101.52,20.2Z"/><path class="cls-2" d="M25,23.9c-.3.5-.5.8-.7,1.2,0-.3-.1-.5-.1-.8s.3-.5.4-.8A.78.78,0,0,0,25,23.9Z"/></g></g></g></svg>