<svg xmlns="http://www.w3.org/2000/svg" viewBox="0 0 245 397.18"><defs><style>.a{fill:#bcbec0;}</style></defs><title>Asset 1</title><path class="a" d="M0,111.84c.88-.3.9-2.35,2.19-1.41.79.58-.56,1.29-.8,2L0,112.56Z"/><path class="a" d="M1.42,115.48A1.63,1.63,0,0,1,0,116.88v-.72Z"/><path class="a" d="M1.46,114.77,0,114.72V114l1.43-.67Z"/><path class="a" d="M101.53,247.19c.77-8,4.13-15.19,6.7-22.62s7-13.76,9.67-20.94c1-2.57,3.68-3.93,3.81-6.8,1.86-1,1.26-2-.07-3a5.91,5.91,0,0,0,1.39-.12,3.14,3.14,0,0,0,1.1-.69c-.4-.86-1-.23-1.4,0a5.33,5.33,0,0,0-1.05.89L120.19,196c-3.83,4.51-6.4,9.8-9.23,14.93-.79,1.44-1.14,3.14-2.46,4.28-.31-1.81.92-3.09,1.61-4.52,1.4-2.91,3-5.72,4.46-8.6.39-.78,1.58-1.8.6-2.45-1.25-.84-2.14.34-2.76,1.45q-2.19,3.92-4.4,7.82c-.71,1.24-1.46,2.46-2.2,3.69l0,0c1.38-5.61,4.15-10.55,7.3-15.33.82-1.24,2.9-3.21-.89-3.42l.06,0c2.46-1.93,2.67-3.78.73-6.39a4.49,4.49,0,0,1-.25-.66c-.42-.83.85-2.35-.3-2.45-1-.08-1,1.72-1.31,2.69-2.51,6.94-4.73,14-8.1,20.59l-.28-.23c.29-4.12,3-7.47,3.66-11.47a5.48,5.48,0,0,1,.73-2c1.32-2.08-1.85-1.94-1.65-3.44-1.36.09-1.29,1.3-1.51,2.11-2.83,10.38-7.13,20.26-10.47,30.46a4.53,4.53,0,0,1-1.45,2.42l0,0c1.07-5.56,3.28-10.76,5.13-16.07,2.15-6.17,4.36-12.31,5.51-18.78.16-.92-.29-1.31-.61-1.9,1.3-.48,1.46-1.16.29-2-.36-.24-1.1-.5-1.25,0-.36,1.23,1.18.35,1.33,1,.06.29-.21.66-.33,1-1.85.4-1.76,2-2.14,3.37C97,203.34,92.71,214,88.83,224.84a6.67,6.67,0,0,1-1,1.45l0,0c.26-4.53,2.53-8.45,3.91-12.63,1.76-5.35,3.81-10.59,5.63-15.92a21,21,0,0,0,1-8.48c-.1-1.36-.27-2.49-2-2.54a11.39,11.39,0,0,0,.14-1.35,9.8,9.8,0,0,0-.17-1.28c-.85.22-.52.89-.45,1.37a5.12,5.12,0,0,0,.52,1.23c-1.35,5.7-2.14,11.53-4.26,17-.37,1-.5,2.1-1.46,2.78-.69-1.07.12-2,.37-2.91,1.07-4,2.15-8.09,3.3-12.12.49-1.71-.19-2.95-.91-4.43a4.83,4.83,0,0,1-.16-3.35c.29-.75.55-1.75-.45-2.22-1.71-.79-4.27-1.16-1.15-3.53.35-.27-.12-.62-.44-.72-2.9-.93-3-3.52-3.64-5.89-.28-1.1-.85-2.69-2-2.41-.89.21.27,1.65.22,2.56s.69,2-.32,2.17-.53-1.35-.92-2-.07-2.11-.93-2.12-.66,1.35-1,2.1c-1.76,4.45-3.17,9.09-5.41,13.29-1.44,2.71-1.33,4.57.6,6.64l-.42.41c-3.41-4.21-7.81-5.55-13-4.58a16.22,16.22,0,0,1-2.5.08l-.1-.09c1.45-5.33-1.14-8.27-5.89-9.93-2.64-1-4,0-4.14,2.77l-4.34,3c-2.15-.17-3.79.4-4.18,2.83-1.93.91-1.75,1.86-.06,2.85-2.17,1.45-2.91,2.89-2.51,6s.74,7-1.88,9.89l-.51.59c.78,2-.48,3.57-1.31,4.95-3.73,6.15-5.7,13-8,19.68l-1.15.83c.16-4.6,2.28-8.69,3.45-13,3.09-11.44,6.5-22.79,6.22-34.82,0-.81.49-2.08-.31-2.32-1.29-.39-1.25,1.19-1.63,1.92-1.87,3.5-2.72,7.36-5.78,10.45-2.48,2.51-5.61,4-8,6.57-.32.34-.93.55-1.18,0s.34-.82.72-1.09a57.89,57.89,0,0,0,9.07-8.06c3.88-4.16,3.39-6.08,0-10.56-1.74-2.27-4.55-2.67-5.92-5.16a4.17,4.17,0,0,0-4-2c-.58.07-1,1.43-1.6.4-.3-.48.42-1,.91-1.39a10.06,10.06,0,0,0,2.51-3l0,0c1.36-.23,2.86,1.11,4.07-.2a78.9,78.9,0,0,0,5.38-6.23,1.57,1.57,0,0,0-1-2.35c-1.79-.54-3-4.57-5.56-1.09a.68.68,0,0,1-.57-.11c-1.32-3.41-4.4-2.69-7-3-2.21-.29-4.31-.41-5.75,1.79-.26.39-.71.77-1.17.36a.82.82,0,0,1,.14-1.26,28.22,28.22,0,0,1,4.21-3.32c2-1.11,1.88-2.1.46-3.56-4.16-4.27-6.17-9.65-7.59-15.27-1-4-.36-4.48,3.86-4.36,4.61.13,9,.72,13,3.29,2,1.29,4.87,1.07,7,2.6.79.57,1.28.51.79,2-1,3.09,1.7,5.74,2.12,8.79.08.58.45-.34.46-.55,0-.71-.07-1.43-.08-2.15,0-1.32-2.34-3.37,1.21-3.63.47,0,.54-1.49.05-1.95-2.46-2.32.55-2.06,1.26-2.38,1.24-.56,2.62.31,4.15-.24s1,1.17.73,1.9c-.76,2.28-.42,3.74,2.26,4.24,1.61.3,2.07,1.51,1.4,3-.29.67-.77,1.38-.35,2,.58.91-1.92,2.53.53,2.73,1.33.11,2.78-.32,2.92-2.38.27-3.78,2.22-6.23,6-7.4,1.36-.42,1.73-.22,2,.89.43,2.08,1.35,4.07.65,6.33-.62,2,0,3.13,2.45,3.55,2.7.45,3.11-.82,3.37-2.8.7-5.32,1.55-10.61,1-16-.42-4.21-1.41-5-5.35-3.6-2.25.83-4.52,1.6-6.8,2.36-.39.13-1,.59-1.21-.08-.14-.49.49-.76,1-.88a35.91,35.91,0,0,0,9-3.63c2.57-1.44,3.81-.36,4.6,1.89.71,2,1.21,4.09,1.81,6.14l.82.77,1.05,0c.32,1.42-.79,3,.33,4.31l-1.64.73a.64.64,0,0,0,0,.65c-.15,1.54-2.45,3.61,1.06,4.24a3.93,3.93,0,0,0,1.2,2.32A1.83,1.83,0,0,0,72,149.27c1.09,2.61,3.08,4.82,3.11,7.91,0,1.26,1.52.82,2.18,1.17,4.68,2.42,8,.11,11.19-2.71,1.65-1.46,2.57-1.75,4.75-.37,1.83,1.16,4.82.79,7.25.59a12.87,12.87,0,0,0,7-2.78c2.49-1.95,4.83.53,7.24,1,5,.91,9.72.41,14-2.51.28-.19.7-.64.79-.58,3.27,2.27,6.74-.37,10.09.46,2.68.66,5-.77,7-2.22,1-.7,1.4-1.12,2.93-.6,5.2,1.77,10.57,1.23,15.82-.21.79-.22,1.45-.82,2.35-.39.73.35,1.78,1,1.84-.42,0-.73-1.11-1.27-2-1.27a7.55,7.55,0,0,0-2,.64c-4.59,1.45-9.2,1.74-13.66-.31a5.05,5.05,0,0,0-5.88.6,12.56,12.56,0,0,1-13.57,1.35c-1.34-.62-2.66-1.84-4.33-.72l-.11-.11c.61-1.76,1.81-2.1,3.39-1.35,5.6,2.66,10.89,2.17,15.8-1.62,1.54-1.19,2.87-.76,4.27.1,4.12,2.54,8.31,2.28,12.6.42a17.86,17.86,0,0,1,3.76-1.12c1.33-.25,2.32-.63,2.09-2.25.7-1,1.84-1.69,2.17-3,1.93-.68,2.11-1.71.62-3.08l-2.61-.13-.26-.19-1.46-2.17a7.53,7.53,0,0,0-1.52-3.54c-.57-1.69-4.28-1.28-2.88-4.29l.81-1.47a9.09,9.09,0,0,0,5-5.85c1.74.57,3.91,2.32,4.06-1.48,1.82-5.69,2.15-5.14-3.72-5.73l-3.18-.33,0,0c3.8-1.87,4.41-5.12,1.66-8.59a7.57,7.57,0,0,1-1.83-4.56l1.11-1c2.15,2.08,2.38,5.34,4.79,7.39,1,.87,3.08.75,3.17,3.11,0,.95,1.39-.29,1.46-.89.39-3.37,2.25-5,5.56-5.42a2.6,2.6,0,0,0,2.22-2.52c.17-2.61,1.79-3,3.92-2.91,3.24.17,4.91-1.7,5.33-4.63.39-2.72,1.41-4.05,4.43-3.63,2.33.32,3.86-1,4.19-3.43s1.15-3.84,4.21-2.9c3.92,1.19,5.26-1.79,6.07-4.83.51-1.9.95-2.7,3.31-2,3.22,1,6.16.22,7.17-3.73.54-2.11,1.67-2.44,3.28-.9.56.53,1.56,1,1.94.55,2.08-2.26,5.45-2.75,7.23-5.36.17-.26.36-.51.54-.76a13.82,13.82,0,0,1,1.87,1.59c.47.56.62,1.82.05,1.91-4.13.7-2.26,4.29-3.28,6.46a1.58,1.58,0,0,1-1.68-.25l.21-1.3c-.42-1.14-.9-2.09-2.13-.67-1.08,1.17-2.19,1.81-3.87,1-.76-.39-2.4-.55-2.67-.16-2.25,3.34-6.06,2.87-9.19,4A2.58,2.58,0,0,0,214.24,78c-.91,3.49-3.51,4.38-6.58,3.86-2.3-.39-3.08.38-3.25,2.49a4.34,4.34,0,0,1-4.47,4.29c-2.38.15-3.58,1-4.19,3.49-.74,3-2.4,5.35-6.17,4.27-2.06-.59-2.58.89-2.86,2.32-.57,2.94-2,4.57-5.2,3.94-.86-.17-1.88-.21-2,.93-.22,2.73-1.61,5-1.19,8.21.66,5,1.68,10,2.45,15,.51,3.31,2.13,6.63,2.94,10,.31,1.31,1,2.76,0,4.14l-.85,2.66a2.28,2.28,0,0,0,.69,2.75l0,0a17.86,17.86,0,0,0-2.71,6.59c-2.93,12.89-7.84,25.15-12.06,37.63a65.28,65.28,0,0,0-2.9,26.27c.66,8.48,4.6,15.07,11.92,19.82q12.05,7.8,23.56,16.44a97.17,97.17,0,0,1,19.16,19.26,17.15,17.15,0,0,0,4.1,3.93c4.18,2.83,6.67,6.8,6.35,12.08-.19,3.13,1.52,5.75,2.15,8.65.12.55.45,1.25-.19,1.61s-.83-.24-1.07-.65c-.51-.88-.71-1.28-1.69-.14-.84,1-2.33,0-3.18-.72s-.1-1.7.54-2.42l-.08,0a10,10,0,0,0,2.53,1.19c1.53.25.61-.66.41-1.18-1.21-1.67-3.17-1.54-4.86-2.06-.1-1.89-.2-4-2.26-4.69-1.56-.51-3.57-1.73-5-.06-.92,1.08.32,2.6.4,3.95l-2-.07c-1.15-.41-1.16-1.48-1.54-2.42-.67-1.69-1.8-2-3.1-.49l-1.71-.54a12.14,12.14,0,0,0-2.13-1.27c-1.51-.54-.88-1-.09-1.63.41-.31,1.41-.36,1-1.08-.28-.52-1.14-.19-1.61.17-.75.56-1.85.35-2.15,1.94s-2.64,1.95-3.9,1.66c-4.19-.95-8,.23-11.81,1.51-1.84.62-3.68,0-5.61.4-4.47,1-8.28,3.67-12.69,4.72-.11-.67.29-1.7-.45-1.92-1-.3-1.08.8-1.06,1.42,0,1.45,1,.26,1.55.47-.33,2-2.06,2.93-3.46,3.93-10.07,7.15-16.67,16.89-21.78,27.95-2.65,5.73-6.36,11-8.75,16.85-.3.75-.91,1.32-.79,2.3.68,5.64-1.11,7.84-5.48,11.19a13.93,13.93,0,0,0-5.31,10.4c-.07,1.67.94,3.67-2.11,3.53-.37,0-.88.78-1.15,1.3-2.85,5.66-8.73,8.8-11.92,14-3,4.83-8.11,4.56-12.14,6.8-4.19,2.33-8.32,4.57-13.46,4.19-2.09-.15-3.89-1-5.85-1.29-3.37-.51-5.73-2.47-8.24-4.62s-6-3.44-8.87-5.42c-10.35-7.19-20.32-14.82-27.7-25.29-2.2-3.13-4.56-6.15-6.72-9.3-.77-1.12-2-2.25-1.17-3.89l2.32-.06c1.71,1,1.88-1,2.86-1.43,1.61-.19,2.15.8,2.37,2.15l-.22.75.05-.07c-.35.41-1.24.73-.24,1.37l1.61-.6,1.39,1.61c-.46.92-1.91,1.61-1.34,2.71.69,1.31,1.88-.28,2.87,0a2.39,2.39,0,0,0,.71,0l.17.72c.19.33.36.23.53,0l0,0,1.25-.75,1.52-.61c.34.71.31,2.29,1,2,2.52-1,2.17,1.12,2.76,2.24,0,1.07.68.92,1.37.75l1.14-.62c.25,1.44.53,2.86,2.51,2.66l0,.85a.83.83,0,0,0,0,1.42l.73.74c.12.77.56.93,1.23.65h1.1a2.06,2.06,0,0,1,.52.06l.62.1,0,.32c.13.91.68,1.21,1.54,1.07-.41,2.81,3,1.53,3.55,3.35l0,1,0-.08a1,1,0,0,0,0,1.51l1.6-.85h.27l1.11,0a2.61,2.61,0,0,1,.47,0l1,0a5.68,5.68,0,0,0,.59-.25c1.36,1.73,2.87.51,4.33.21l.74,1.07a2,2,0,0,0,2.12,1.91l1.16.56,3.29,1.65,0,1.56c-1,1-.8,2.3-1,3.5l-.59.61.79,0-.05,0h.83l.78-.13.54-.61c1.34-.22,2.06-1.27,2.9-2.16l.85,0c3.64,3.32,4.44,3.16,7.08-1.47,2.44,0,2.9-1.94,3.61-3.64l.79-.68c2.35-.05,4.07-.78,3.8-3.59l-.33-.76.76-.67c.87-.49,2.45-.69,2.1-1.91-.43-1.52-1.93-2.24-3.56-2.41-.09-1.39-.4-2.6-2.16-2.6l-.94-.17a5.5,5.5,0,0,0-2.69-3.71c.1-1.34-.73-2.24-1.53-3.13a184.12,184.12,0,0,1-28.76-43.21c-5.8-12.08-9.57-24.78-10.3-38.25-.14-2.61,0-5.24,0-7.86a1.25,1.25,0,0,1,.36-.93c.39-.25.64.15.67.5.15,2.15,1.74,1.52,3,1.51,3,0,6-.43,9-.1,4.07.45,6.21-1.6,7.88-4.82.34-.65.3-2.11,1.37-1.69s.72,1.73.26,2.56a31.94,31.94,0,0,1-5,6.54c-.52.53-1,.39-1.59.2-4-1.22-8.09-.27-12.13-.41-2-.07-2.71,1-2.65,2.89.14,4.8,1.25,9.47,1.87,14.2.25,1.86,1.66,2.22,3.24,1.89a38,38,0,0,1,8.59-.48c2.28,0,3.66-.95,5.12-2.61,2.17-2.47,2.27-4.52-.14-6.72h0c2.33.49,2.36-1.05,2.08-2.55-.42-2.26-.88-4.47.09-6.69,1.21,2,.16,4.29.65,6.32,1.39,5.72-.91,11.54.59,17.23a4.6,4.6,0,0,1-.08,1.4c-.74-.16-.6-.87-.71-1.32-.24-1-.26-2.13-.46-3.18-.16-.85.45-2.38-.83-2.33s-1.93,1.4-1.55,2.74a43.47,43.47,0,0,0,2.06,6.11c.52,1.16.79,1.7-.77,1.77a20.39,20.39,0,0,0-2.12.32,13.29,13.29,0,0,1-4.62.07c1.29-.36,2.57-.78,3.88-1.08,1.05-.24,2.44-.24,2-1.83-.61-2-.14-5.11-3.18-5.35a75.55,75.55,0,0,0-10.4.27c-1.61.1-2.21,1-1.73,2.71a98.14,98.14,0,0,0,4.4,12.89,4,4,0,0,0,4.55,2.61c3.1-.33,6.22-.48,9.3-.92a5.06,5.06,0,0,0,3.59-7.75c-.21-.36-.92-.65-.39-1.13s1-.26,1.51.3c1.91,2.32,2.08,4.51.34,7.17a6,6,0,0,0,2.64,8.93c.73.34,1.52,1,2.3.31.61-.55.2-1.34.08-2-.9-5.18-2.35-10.28-2.39-15.59l0,0A89.8,89.8,0,0,1,84.4,311a35.2,35.2,0,0,0,2.12,6.34c.22.56.34,1.23,1.16,1a1.19,1.19,0,0,0,.71-1.48,37.3,37.3,0,0,0-.88-3.84,104.28,104.28,0,0,1-4.12-21.79c0-.56-.6-1.46,0-1.6s.58.85.68,1.4c.61,3.53,1.18,7.07,1.79,10.6a89.55,89.55,0,0,0,4.09,14.84c.37,1,.38,2.59,2.23,2-1.41,2.56.18,4.84.69,7.22.15.5.44.92,1,.53s1.3-1.1.51-2c-.48-2-.7-4.1-2.19-5.72-1.77-8.56-4.5-16.91-5.38-25.65-.23-2.26-.51-4.52-.73-6.78-.07-.72-.74-1.53.19-2.18a7.25,7.25,0,0,1,.72,2,107.08,107.08,0,0,0,2.36,15.24C90.5,306.81,91.44,312.67,94,318c1.44,2.94,2.93,5.78,3.52,9,.11.63,1.42,1.68,1.66,1.56,1.1-.58.13-1.48-.11-2.12A145.07,145.07,0,0,1,90.4,291a117.68,117.68,0,0,1-1-17.55c0-.49-.15-1.33.75-1.25.16,0,.4.85.36,1.28-.58,6.24.16,12.43.93,18.59,1,7.84,2.32,15.63,5.1,23.09.24.65.39,1.61,1.32,1.24s.47-1.22.32-1.92c-.51-2.33-1-4.66-1.48-7a6,6,0,0,1,0-1.36c.82,0,.71.78.88,1.25.49,1.32.13,2.9,1.21,4.05.8-1.46.12-2.93,0-4.38a136.52,136.52,0,0,1-.2-23.58c0-.5-.22-1.15.45-1.49a9.27,9.27,0,0,1,.18,1.4A209.89,209.89,0,0,0,101.67,318c.42,2.94,1.36,5.8,1.73,8.74.21,1.64.94,1,1.66.76,1.52-.47,3.39-.37,3.86,1,1.61,4.59,6.48,5,9.57,7.69,1.61,1.38,1.29,2,1,3.24-.2.84-.32,1.75.6,2.22s1.57-.1,2.18-.76c1.3-1.38,2.25-3,3.88-4.18,1.36-.95.37-2-.25-3.1-4.18-7.13-8.54-14.17-11.54-21.92-.42-1.09-.65-2.26-1-3.39,1.41.48,1.56,1.88,2,3a113.34,113.34,0,0,0,8.57,16.59c.5.83.81,3,2.77,1.44,0,1.38-.49,3,1.47,3.57.15.39.34,1.13.45,1.12,1-.13,1.38-1,1.67-1.83l1.49-.76c-.07.89-.85,1.8-.23,2.62.33.44.76-.16,1-.53.62-1,.46-1.75-.8-2-.2-.49-.16-1.43-.91-1.14s-.48,1.19-.48,1.88a2.94,2.94,0,0,1-2.21.7l-.65-3.56c1.52-2.44,0-4.33-1.13-6.29-.28-.5-.72-1.13-1.34-.35-.5.62-.8,1.72-1.84.73a2.35,2.35,0,0,1-.57-2.65c.58-1.58,1.24-3.09.14-4.78-.71-1.08-.85-2.82-2.47-.64-.83,1.12-1.35.1-1.7-.74-.58-1.39.06-2.61.58-3.79a4.74,4.74,0,0,0,0-4.46c-.54-1-.78-2.31-2-.47-.35.55-.64,1.58-1.51,1a3.21,3.21,0,0,1-.89-1.87c-.35-1.43.6-2.5,1.21-3.65s1.51-2.06.72-3.3c-.68-1.07-.34-5.52-3.1-1.07-.85,1.37-1.58.46-1.89-.64-.4-1.45.48-2.55,1.16-3.65.9-1.45,1.73-2.83,1.09-4.68-.5-1.44-.09-4-2.71-1.39-1.22,1.2-1.58,0-1.7-1.05-.16-1.51.81-2.54,1.8-3.36,2.18-1.81.87-4,.82-6,0-.55-.39-.81-1-.54s-1.36,1.53-2.06.32a2.63,2.63,0,0,1,.79-3.26,7.13,7.13,0,0,0,2.31-6.14c-.05-.58.07-1.14-.75-1.36-2.69-.73-3-1.73-.66-3.67,1.65-1.4,2.9-2.77,2.9-5,0-1,.5-2.27-1.25-1.07-.48.33-1,.93-1.57.47s-.18-1.35,0-2a6.86,6.86,0,0,1,2.89-3.57,8.66,8.66,0,0,0,3.52-5.21c.34-1.53,1.29-3.17-1.6-1.71-1.42.72-1.22-.42-1-1.3.36-1.7,1.61-2.57,3-3.38s3-1.63,3.29-3.56c.25-1.44,1.56-3.48-1.74-2.11-1.44.6-1.21-.47-.81-1.32a8.82,8.82,0,0,1,4.31-4.15c.86-.43,1.83-.76,2.28-1.66.31-.62.71-1.49.49-2-.37-.89-1.22-.24-1.86-.06s-1.22.52-1.56-.16c-.13-.26.34-.81.51-1.23.82-2.06,2.68-3,4.41-4,.89-.56,2.09-.71,2.59-1.82.33-.75,1.12-1.87.86-2.22-.63-.87-1.4.21-2.13.41-.54.15-1.12.74-1.6.09s0-1.11.29-1.65a9.57,9.57,0,0,1,4-4c1.1-.7,2.36-1.23,3-2.53.19-.41.62-1,.48-1.23-.29-.55-.82,0-1.25.05-.65.12-1.52.77-1.84-.15-.18-.51.32-1.36.69-1.94.82-1.28,2.29-2.13,2.56-3.79a4.58,4.58,0,0,1,1.35.1c.72.28,1.37.39,1.76-.41a1,1,0,0,0-.1-.94c-.59-.63-1.34-.32-1.91,0s-.72.84-1.06,1.27c-2.15.42-3.29,1.68-4.28,3.73-1.67,3.45-3.11,7.08-5.66,10l-.29-.24c-.63-2.35.66-4.14,1.93-5.78a23.76,23.76,0,0,0,4-8.55l-.73-1.12c.44-.31,1.5-.28,1.2-1-.48-1.08-1.38-.34-2.1,0l-1.83.73-.37-.62c-.22-1.27.73-2.23.91-3.39a3.12,3.12,0,0,0-.18-1c-.28.15-.74.24-.82.46-.79,2.27-3.34,3.87-2.58,6.72l0,0c-3.43.59-4.1,3.83-5.36,6.16A175,175,0,0,0,103,243.55a7.93,7.93,0,0,1-1.49,3.6Zm40.36-26.84v-.29l0-1.28,0-.07-.07-1,1.49-.73-.06.06v-.87l0-2.66.69-1.55a1.39,1.39,0,0,0,.66-2.16l0-.08c.73,0,1.93.85,2-.4.08-1-1.23-.79-2-.88-.76-.79-1.5-.74-2,.24-1.35,2.74-3.36,5.17-3.87,8.3-1.79,2.39-3.71,4.71-3.51,8a7.38,7.38,0,0,0-2.74,3.67c-1.25,3.11-2.69,6.14-3.9,9.26-4.54,11.67-8.36,23.58-8.24,36.23.16,16.37,6.72,30.72,15.2,44.32,1.27,2,3.4,2.17,5.06.43.57-.6.29-2.19,1.79-1.67a2.53,2.53,0,0,1,1.69,2.5,18.2,18.2,0,0,0,.57,2.81c.1.45.12,1.06.81.87a1.08,1.08,0,0,0,.53-.82c.05-.83,0-1.67,0-2.5s-1.58-2.87,1.26-1.53c.73.35,1.1-.78,1.41-1.36,1.64-3.19,4.18-5.72,6.23-8.61a42.82,42.82,0,0,1,10.62-10.44c2.68-1.85,4.07-3.94,3.33-7.16-.26-1.12.14-2.5,1-1.94,1.16.75,3.62-.5,3.4,1.51s.41,1.5,1.39,1.15,1.92-.92,2.9-1.34c.64-.27,1.78-.35,1.58-1.11-.27-1-1.15-.17-1.76,0-1.23.29-1.72,0-1-1.21.39-.59.54-1-.09-1.47-.43-.34-1.48-.31-1.21-1,.38-1,1.21-.24,1.82,0,1.1.36,2.13-.1,3.19-.19-.29,1.84.27,2.61,2.33,2.38,3.61-.4,2.66-2.39,1.78-4.46,1,.05,2.24-.23,3,.23,2,1.17,1.93,1.3,3.51-.22l0,0c2.5.39,1.55-2,2.41-3,.42-.46,1.71-.44,1.19-1.34-.37-.64-1.3.19-2,.17-2.78-.08-4.73,2.46-7.15,2.63-6.47.45-12.54,1.85-18,5.37-1,.64-2,1.36-3,2-.48.29-1.34.75-1.56.57-1-.79.25-1.13.56-1.62.69-1.1.12-2.11-.14-3.11A125.54,125.54,0,0,0,158,270.74c-2.43-6.11-6.19-11.59-8.24-17.86,1.27.84,1.77,2.24,2.43,3.49,4.68,8.9,9.06,17.94,11.87,27.64.64,2.21,1.62,3.1,3.3,1.17s3.85-2.29,5.94-2.94c4.15-1.29,4.51-2,2.72-5.67s-3.72-7.11-4.8-11c3.12,3.42,4.47,7.85,6.66,11.79,1.84,3.3,2.31,3.5,5.75,1.51,1.63.91,2.08-.58,2.86-1.41.16.49.42,1,.93.43s.44-1.28-.28-1.77l.09-2.28c.48-.8,1.49-1.41.86-2.55,0,0-.58.27-.89.41l0-2.18c.57-.78,1.59-1.41.88-2.6,0,0-.59.29-.9.45-.14-.71,0-1.52-.76-2,.05-1.13-.25-1.68-1.4-.86.11-1.58-1.69-1.65-2.19-2.74.1-1.21-.22-1.75-1.41-.86l0-2.12c.62-.68,1.3-1.6,1-2.36s-1.08.33-1.7.3c-1-1.3-2.5-2.95-2.66-4-.43-2.64-3.66-.84-3.86-3.15-.24-2.86-3.12-4-4.33-6.22a.87.87,0,0,0-1.24-.33,1,1,0,0,0-.46,1.23c.66,2.11.63,4.31,2,6.35,2.49,3.74,5.22,7.44,6.26,12-3.13-5-6.19-10.11-9.41-15.09-1.71-2.64-2.86-5.77-5.83-7.44-.08-1.52-2.41-1.23-2.31-2.89.28-1,1-2.35-.34-2.72-.68-.19-.86,1.43-1,2.31a2.73,2.73,0,0,0,.24,1c-1.48,2.56-3.24,4-6,1.47.08-.78.86-2.13.1-2.22-1.19-.14-.47,1.44-.89,2.15l-2.12-.2c-3.91-.31-3.88-.2-3.48,3.66.32,3.07,2.36,5.39,3.07,8.25-2.17-1.54-2.74-4.09-3.91-6.25-.85-1.57-2.71-2.52-3.81-2.23-1.57.41-.44,2.19-.17,3.4.09.4.53,1-.15,1.14-.23.06-.64-.59-.95-.93-2-2.22-1.1-5-1.34-7.51l-.27-.21-.27.21c-.55.63-1.17,1.3-2,.63a2.25,2.25,0,0,1-.77-3,3.09,3.09,0,0,1,.48-.41c1.62-2.8,1.46-6.18,2.91-9.05.61-1.22-.15-2.27-.93-3.2l1.12-.75.9,0,1.14-.77,0,.06.72-.76ZM75.57,329.25l.9.79h3c1.16,0,2.32.64,3.47,0l1.95.74c1.59-.93,1.49-1.92.09-2.94l0,0c-.46-2.93-1.64-4.14-4.33-1.85l-.75.09c-.86-.06-1.45-1.26-2.48-.57l1.78,1.59v1.43l-.05.06a1,1,0,0,1-.48,0l-1,0-.81-.07-1.31-.66a.94.94,0,0,0,0,1.46Zm126-43.18c.55-.08,1.2.08,1.47-.62,0-.07-.09-.27-.15-.28-.7-.08-1,.4-1.28.94l-2,.08c0,.13.05.35.13.38A1.85,1.85,0,0,0,201.61,286.07ZM190.1,276.7c.27.36.69.92,1.05.54.6-.62.24-1.24-.47-1.64-.14-.39-.19-1.14-.79-.67S189.49,276.16,190.1,276.7ZM94.33,385.45c-.79.18-2-.31-2,1.12,0,.29.61.83.94.84,1.5,0,.8-1.25,1.05-2,.46.08.91.2,1.37.25s.81,1,1.33.26c.09-.12-.42-.77-.76-1.05C95.37,384.15,94.77,384.59,94.33,385.45ZM138.19,193a10.83,10.83,0,0,0,4.11-2c.08,0,0-.4-.05-.61a11.28,11.28,0,0,0-4,2.17c-.92-.94-1.59-.58-2.13.42-.17.31-.34.73.07.87A1.74,1.74,0,0,0,138.19,193ZM105.12,376.08c-2.09-.47-2.4,1.52-3.39,2.51-.77.77-.33,1.59.48,2,1,.58,1.15-.54,1.4-1,.59-1.14,1-2.37,1.48-3.57,1.9.32,2.27-1.27,3-2.42.06-.1-.19-.55-.27-.54-1.47.11-1.69,1.45-2.29,2.41C105.35,375.67,105.24,375.88,105.12,376.08ZM198,280.29c1.5.11,2.92.09,4.29,1.18,1.09.86,2.72.85,2.15-1.42a2.66,2.66,0,0,1,.44-2.29c.27-.43-.21-1.22-.44-.94-1.69,2-5.3.53-6.39,3.53-3.6-.19-4.59,1.24-3.32,4.74.14.4-.11,1.06.62,1,.57-.06.61-.59.68-1.09.32-2.23.36-2.36.7-2.3C199.6,283.18,197.84,281.24,198,280.29Zm-59-69.84c1.44-1.7,3.32-3.12,3.42-5.63,0-1.11-.43-1.95-1.58-1.95-1.65,0-3.14.59-3.49,2.4s.89.89,1.69.86c1.11,0,1,.81.74,1.48-.4,1-.95,1.9-1.43,2.84a1.24,1.24,0,0,0-.85,1.92,15.32,15.32,0,0,0-2.86,0,2.6,2.6,0,0,0-2.11,2.59c.13,1.27,1.2,0,1.86,0,1.3,0,.81.88.6,1.48-.65,1.86-2.2,2.77-3.86,3.53a4.51,4.51,0,0,0-3,3.3c-.19,1-.06,1.36,1,1,.62-.2,1.36-1,1.88-.25s-.37,1.53-.7,2.26c-.76,1.68-2.42,2.33-3.91,3-2,.91-2.57,2.71-3.26,4.48-.35.9-.2,1.36.93,1,.81-.26,1.78-1.54,2.44-.39.52.9-.38,2.07-1.07,2.87a6,6,0,0,1-2.23,1.75c-2.86,1.09-3.58,3.64-4.47,6.11-.15.41-.49.95.11,1.22.23.1.66-.17,1-.32.77-.39,1.54-1.72,2.38-.62.68.89,0,2.22-.65,3a16.43,16.43,0,0,1-3.59,2.94c-1.81,1.15-2.4,2.9-2.79,4.82-.09.45-.22,1,.34,1.21.24.08.62-.23.94-.37.86-.4,1.51-2.19,2.51-1.08.86,1-.34,2.22-1,3.18a5.38,5.38,0,0,1-1.78,1.73c-2.33,1.24-2.4,3.37-2.43,5.57,0,1.37.35,1.91,1.58.77.43-.4,1-.92,1.55-.46s.24,1.36,0,2a8.38,8.38,0,0,1-1.5,2.43c-1.7,1.65-1.53,3.67-1.36,5.71.07.81.08,2,1.39,1.24,2.81-1.64,1.86.8,1.66,1.67a8.9,8.9,0,0,1-1.67,2.71c-1.07,1.54.06,3,.15,4.49,0,.55.57.54,1.11.32,3.17-1.36,2.17.76,1.74,2.2-.27.91-1.1,1.7-1.18,2.59-.14,1.52-.44,3.65,1.53,4,2.48.45,3,.62,2,3.07a6.61,6.61,0,0,0-.34,5.17c.49,1.32.89,1.74,1.73.28.27-.48.3-1.33,1.13-1.09s.89,1.07,1,1.75c.33,1.53-.54,2.8-1.09,4.09a4.07,4.07,0,0,0,1.11,4.61c1.28,1.22,1.3-1,2.07-1.48,1-.63,1.18.19,1.46.83a3.89,3.89,0,0,1-.39,3.46c-.84,1.62-.36,2.95.54,4.36s1.55,2.36,2.29,0c.17-.56.4-1.33,1.14-1.06.46.17.81.82,1.07,1.32a3.88,3.88,0,0,1-.18,3.13,3.79,3.79,0,0,0,1.72,4.94c.59,1.22,1.41,2,2.16.27s2.46-1.62,3.64-1.6c3.71.06,5-1.42,3.94-5-.34-1.11-.7-2.7-2.25-2.18-1.27.42-.11,1.63-.06,2.48a9.09,9.09,0,0,1,.28,1.74c-.26,1.65-1.69,1.47-2.82,1.52-1,0-1.31-.57-.64-1.36.47-.55,1.29-1.14.36-1.66-1.13-.63-1.26.74-1.69,1.33-1,1.42-.22,4.06-2.88,4.45,1.18-5.5,1.72-10.86-2.51-15.54a17.53,17.53,0,0,1-2.2-4.11C124,299,120.08,288,119.41,276c-.68-12.15,2.93-23.48,6.79-34.7,3.47-10.07,8.09-19.69,12.7-29.3ZM103,355.23c-2.16.4-4.46.12-6.46,1.34-.44.27-1.32.15-.93,1a1.2,1.2,0,0,0,1.45.71,24.12,24.12,0,0,0,5.86-2.38c2.7.73,2.72-1.52,3.38-3.05.75-1.73-.2-2.58-1.56-3.41-2.82-1.73-8.83-1-12.4,1.57-.46.34-1.29.64-1,1.27.41.94,1.18.33,1.8.07,2.51-1,5-.62,7.54-.11.86.17.2,1.68,1.17,1,.52-.36.17-1.11-.23-1.59-1.78-2.07.21-1.73,1.21-1.79a2.19,2.19,0,0,1,2.29,1.42C105.62,353.2,103.86,354,103,355.23Zm-10.14-18c2.3-3.57,2.17-3.92-1.6-5.18-4.41-1.48-8.45.62-12.64,1.23-.69.1-2.16,0-1.87,1.12.49,1.82,1.32,4.05,3,4.67s-.65-1.23.41-1.56c.67-.21,1.33-.44,2-.63a6.19,6.19,0,0,0,2.64-.91c3.84-3.24,5.74-2.92,8.08,1.3a4.16,4.16,0,0,0-3.17,1.29c-.82.68-3.07-.32-2.57,1.38.35,1.18,2.32.21,3.55.08C92.3,339.8,92.74,338.58,92.86,337.18ZM77,313.43l0,0c-.78-5.31-1.83-6.13-6.94-5.48-2.26.29-4.53.49-6.78.79-.63.09-1.51,0-1.63,1-.29,2.36,3.22,5.53,5.66,5.11a15.26,15.26,0,0,1,1.78-.23,3.52,3.52,0,0,1,.9.19,3.54,3.54,0,0,1-.71.67c-3.76,2-3.82,2-1.41,5.76.84,1.31,1.11,3.57,3.33,3.26,3.43-.49,6.84-1.21,10.22-2,2.12-.48,2.46-2.35,2.86-4.15.44-2-1-2.56-2.28-3.14C80.47,314.52,78.73,314,77,313.43Zm-65.85-180c-.59.06-1.71-.65-1.78.33-.11,1.5-.22,3.25.89,4.45,1.82,2,2.8,4.41,4.26,6.56a17.47,17.47,0,0,0,7.33,6.11,5.3,5.3,0,0,0,5.74-.58c.5-.38,1.19-1.52.42-1.72-2.39-.59-2.61-2.14-2-3.91s-1-3.08.24-4.89c2.43-3.56,2.24-3.71-1.71-5.06-.9-.31-1.85-.49-2.75-.81-2.84-1-3.35.43-3,2.79a11.83,11.83,0,0,1,.51,2.77c-.1,1-.58,2.36-1.83,2.31-1.77-.07-.57-1.35-.59-2.14C16.9,135.79,15,133.75,11.19,133.42Zm46.87,32.5c5.42-1.22,9.67-2.7,11.88-7.45a5.22,5.22,0,0,1,1.35-2.09c2.89-2.05,1.23-4-.49-5.14-1.56-1.07-4-3.89-5.41.57-.32,1-1.6,1.76-2.58,2.4-2.92,1.91-6.8,1.75-9.24,5-1.42,1.91-2,1.42.25,3.18a11.64,11.64,0,0,1,2,2C56.61,165.47,57.39,166.31,58.06,165.92Zm11.26,8.88c.06,2.62-1,2.91-2.7,2a57.08,57.08,0,0,0-11.25-4.28c-.76-.22-1.74-1.64-2.33-.17-.39,1,.9,1.6,1.71,2a47.79,47.79,0,0,1,12.08,8.23c1.8,1.71,2.35-.47,2.79-1.32,1.67-3.17,3.08-6.47,4.56-9.73a7.64,7.64,0,0,0,.49-1.72c.14-.71.24-1.48-.57-1.88s-1.12.2-1.58.55C70.27,170.13,67.37,171.53,69.32,174.8Zm37.91,7.85c-1.33,0-2.27.5-2.16,2.13.06,1,0,1.91,0,2.87,0,.67-.28,1.66.79,1.6a4.12,4.12,0,0,0,2.64-.91c.7-.78-.46-1.07-1-1.43-1.51-1,.15-1.17.47-1.68.44-.68,2-.38,1.74-1.41S108.15,183,107.23,182.65Zm13.39,7.65c-.16-.38-.88-.26-1.2.19-1.49,2.06-2.88,4.18-4.26,6.32-.14.22-.06.88.08.94.39.17,1.08.33,1.28.12C118.51,195.84,119.47,193.19,120.61,190.3Zm53.48-58.66c-1.72-.57.24-4-2.64-3.65-1.32.15-1.87,1.82-1.68,2.73.31,1.53,2.12,1.64,3.42,2.05C173.7,132.94,174.38,132.61,174.1,131.64Zm-28.2,64.08a37.06,37.06,0,0,0-3.7,1.11,1.32,1.32,0,0,0-.85,1.4c.44-.07.88-.13,1.31-.21.75-.14,1.72-1.31,2.06.38.1.5-.4,1.49.47,1.27,1.3-.34,1.21-1.88,1.64-2.93C147.17,195.94,146.53,195.78,145.9,195.72ZM37.35,141.44c-.17,1,.81,2.66,1.14,4.41.06.3.4.54.61.81.05-.22.21-.48.15-.64-1-2.35-.54-4.69,0-7,.11-.5,0-1-.55-1.13-.77-.19-1.08.38-1.19,1A24.19,24.19,0,0,0,37.35,141.44Zm89.87,202.31c-.06-1-.33-1.95-1.3-1.9-.73,0-.91,1-.9,1.69s.06,1.64.13,2.46c.1,1.13-1.77,2.55-.6,3,1,.34,1.29-1.88,1.79-3C126.67,345.19,127,344.42,127.22,343.76Zm-27.37-21c1-.48.83-1.37.8-2.16,0-.94-.07-2.07-1.44-1.95-.69.06-.9.72-.61,1.36C99,320.87,98.58,322.18,99.85,322.71Zm-21,67.49-1.77,1.13c1,.62,1.89,1.26,2.86,1.86.42.26.74,0,.62-.4C80.25,391.81,80,390.73,78.87,390.2Zm3.92-48.8c.82-.09,1.77-.11,2.08-1s-.45-.94-1.05-.92a1.79,1.79,0,0,0-1.9,1.27C81.74,341.42,82.32,341.4,82.79,341.4Zm5-6.18c-.64.16-1.12.51-1,1.23s.53,1.14,1.24,1a1.14,1.14,0,0,0-.26-2.27ZM121.28,355c0-.45-.27-.79-.67-.6-1.11.51-1.11,1.71-1.47,2.67-.09.25,0,.92.43.48A4.78,4.78,0,0,0,121.28,355ZM65.08,185.73c-1-.11,0-1.65-1.2-1.72-.2,0-.53.68-.65,1.09-.24.85.17,1.37,1,1.44C64.68,186.58,65.27,186.7,65.08,185.73Zm66.1,153c-.49-.36-.71-.66-1-.69a1.35,1.35,0,0,0-1.37.84c-.27.61.15.82.66.66A13.77,13.77,0,0,0,131.18,338.71Zm-7.57-151.13c.16-.64-.32-.69-.81-.66s-1,.3-.94.83a1.41,1.41,0,0,0,.73,1C123.42,189,123.42,188.2,123.61,187.59Zm-25.22,190c.18-.6.1-1-.34-.81a6.15,6.15,0,0,0-1.58,1.41c-.28.32-.1.76.36.53A9.93,9.93,0,0,0,98.4,377.57Zm1.59,3.38c-.14-.56-.66-.85-1-.67a2.85,2.85,0,0,0-1.06,1.23c-.19.36.14.68.54.61A1.79,1.79,0,0,0,100,380.95Zm54.44-142.82c.6,0,.83-.28.74-.64a1.09,1.09,0,0,0-.62-.7.49.49,0,0,0-.61.62A2.25,2.25,0,0,0,154.43,238.13ZM36,176.11a1.41,1.41,0,0,0-.71,1.43c0,.37.22.73.58.4a2.55,2.55,0,0,0,.64-1.15A.5.5,0,0,0,36,176.11ZM172.57,145c-.66-.17-1,0-.85.43a1.16,1.16,0,0,0,.66.68c.23.08.56-.14.84-.23ZM137,334l-.59-.91c-.23.22-.59.42-.65.68s.24.53.37.81Zm-24,32.41c0-.21-.06-.6-.14-.61-.64-.1-.68.51-.89.87a.72.72,0,0,0,.09.57C112.75,367.35,112.93,366.9,113.09,366.44Zm4.05-4.41c.19-.27.48-.52.54-.81s-.22-.7-.6-.48-.36.55-.44.86C116.63,361.68,116.93,361.85,117.15,362Zm-2.86,8c-.17-.75-.29-1.11-.74-1-.17.06-.39.37-.36.5s.27.67.46.71S114.22,370,114.29,370Zm-1.82,1.53a5.78,5.78,0,0,0-.58-.73,1.34,1.34,0,0,0-.45.3,6.76,6.76,0,0,0,.48.8ZM62.7,372.77a4.7,4.7,0,0,0-.39.85c0,.06.44.34.48.3a4.7,4.7,0,0,0,.55-.72Zm3.85.59c-.24-.2-.49-.46-.53-.43a5.1,5.1,0,0,0-.7.63c.15.12.36.37.45.34A4.1,4.1,0,0,0,66.56,373.36Zm98.72-132.51-.82-1c-.12.15-.38.38-.34.45a10.66,10.66,0,0,0,.72,1.1ZM102.6,184.38c-.17-.21-.28-.47-.41-.48a4.53,4.53,0,0,0-1,.12c.09.18.18.5.28.5A5.65,5.65,0,0,0,102.6,184.38Zm35.28,147.37c.25-.18.54-.29.53-.39a3.63,3.63,0,0,0-.24-.85c-.15.11-.41.21-.43.33A3.83,3.83,0,0,0,137.88,331.75Zm70.47-52.95c-.12.17-.34.36-.32.51a.6.6,0,0,0,.45.39.46.46,0,0,0,.44-.68C208.86,278.89,208.55,278.87,208.35,278.81Z"/><path class="a" d="M29,116a3,3,0,0,0-3.74.91,1.7,1.7,0,0,0-.17,2.54c.74.9,1.42.62,2.18.12,5.55-3.67,12.12-4.8,18.15-7.3a17.92,17.92,0,0,1,12.67-.1c2.88.94,3.18,2.53.81,4.59A18.21,18.21,0,0,1,47.36,121c-2.47.12-5.63,3.23-5.56,5.56,0,1.33,1,.47,1.59.48,1.18,0,1.91-1.78,3.33-.84-.8,1.17-2.24,1.28-3.32,2a4,4,0,0,1-1.35.48c-1.15.24-2.56,1-3.43.09-1.12-1.14.41-2.09.89-3.08s1.1-1.77.07-2.55-1.84-.2-2.57.5c-1.28,1.25-2.49,2.57-3.77,3.82a1.28,1.28,0,0,1-1.64.25c-.66-.49-.15-1.12.15-1.57.8-1.19,1.71-2.3,2.53-3.48.43-.62,1.62-1.1.84-2-.63-.76-1.62-.18-2.36.09-2.14.76-4.19,1.8-6.36,2.45-2.92.89-4.34-.33-4.25-3.38.13-4.43,7-9.73,10.73-8.3.75.28,2,.64,1.73,1.52-.37,1.31-1.33.06-2,.06s-1.91-.31-2-.07c-.49,1,1.1.62,1.14,1.24C31.87,116.66,30,115.73,29,116Zm19.13-3.44c-1.57-.34-1.34,1.48-1.42,2.79-.15,2.22,1.52.53,2.23.94,2.48,1.41,5-3,7.43,0,.3-.49.8-1,.86-1.47.14-1.18-1.19-2.18-1.66-1.84C53.15,114.67,51.11,112.73,48.13,112.53Zm-5.2,4.55c-.16-.23-.37-.84-.7-.92-.79-.19-.57.51-.49.9s.27,1.1.52,1.16C42.85,118.35,42.94,117.78,42.93,117.08Zm-3.27.55a4,4,0,0,0,.33-.93c0-.12-.28-.27-.44-.41a4.4,4.4,0,0,0-.44.86C39.1,117.24,39.4,117.41,39.67,117.64Z"/><path class="a" d="M77.94,191.57c2.65,1.67,2.34,3.6,0,5-3.14,1.92-4,4.78-4.46,8.12-.3,2.29.7,3.82,2,5.47,2.94,3.65,2.73,5.44-1.33,7.7s-4.67,6-5.22,10c-.3,2.18-.64,4.44-3.72,4.18a6.44,6.44,0,0,1-.94-.22c.18-.13.35-.38.53-.38,3.1,0,2.72-2.49,3-4.39,1.27-7.61,3.15-7.48-6.42-7-4.78.22-5.07.62-5.81,5.4-.68,4.38-1.3,8.77-2.08,13.13-.43,2.4,0,3.67,2.8,3.55a48.56,48.56,0,0,1,8.61.41c4.24.57,5-3.32,7-5.69.41-.5-.1-1.81.87-1.54s.79,1.46.36,2.19c-1.15,2-2.11,4.2-3.73,5.68a6.66,6.66,0,0,0-2.54,5.92c0,.42.1,1.11-.54,1.09s-.55-.66-.6-1.13c-.44-4.6-.43-4.6-4.91-4.66l-1.8,0c-6.1-.12-6.14-.12-6.91,6-.34,2.73-.46,5.5-.73,8.24-.06.62.15,1.77-.72,1.66-.71-.08-.44-1.23-.4-1.89.27-3.71.52-7.41.91-11.11,1.44-13.69,3.83-27.25,6.48-40.73,1.26-6.4,1.82-13,4.15-19.21l.1.09c-.11,2.59.38,5.4-.49,7.7-.76,2,0,1.91,1.24,2.21,3.18.74,6.42.36,9.62.47,2.42.08,5.41-3.64,5.18-5.87ZM65.47,208.33a14.09,14.09,0,0,1,2.37-.7c3.69-.43,5.06-2.09,4.73-5.73-.09-1-.27-1.59-1.39-1.62-3-.09-5.95-.22-8.92-.34-1.57-.06-2.27.56-2.48,2.25-.78,6.11-1.83,6.28,5.07,6a4.14,4.14,0,0,1,.71.09c-1.41.84-3,.7-4.55.83-1.22.11-2.52.25-2.79,1.75-.42,2.34-1.5,5-.8,7,.64,1.81,3.4.12,5.22.32,1.3.15,2.65-.09,3.95.09,3,.42,5.29-.72,7.67-2.31,2.21-1.48,2-2.79.68-4.72C72.49,207.64,68.86,208.47,65.47,208.33Z"/><path class="a" d="M126.63,135.83c-1.24,1.73,0,3,.86,4.64.71,1.31.25,3.35-1.86,3.06a6.77,6.77,0,0,0-4.68.84,1.69,1.69,0,0,1-2.67-1.35c-.27-1.74.37-1.33,1.77-1.09,1.16.2,1-1,.27-2.25-1.15-2-3.63-3-3.93-5.54-.07-.55-.9-1-.38-1.51.14-.15.83.21,1.27.33,2.48.66,4.83,1.7,7.58.52C126.66,132.68,126.49,134.49,126.63,135.83Zm-5.71.61c-.15-.16-.28-.37-.46-.44s-.27.23-.41.36c.15.15.27.37.45.44S120.77,136.56,120.92,136.43Z"/><path class="a" d="M128.21,147.89c-2.09,3.24-8.05,5.47-12.06,3.62-4.8-2.22-8.74-4-13.34.8-2.41,2.51-6.46,1.61-9.43-.33-2.56-1.67-4.33-1.6-6.28.88s-5.05,3-8.11,3.09c-.51,0-1.25.19-1.51-.61a7.48,7.48,0,0,1,1.3-.38c3.58-.38,6.7-1.54,9-4.61,1.18-1.59,2.63-1.87,4.63-.62,5.68,3.55,8.4,3.25,13.6-1,1.61-1.32,3.15-2.86,5.33-1.23,5.55,4.16,11.15,3.38,16.81.3Z"/><path class="a" d="M167,139.19c0,.77.36,2-1.07,1.19-.66-.36-1-1.34-1.53-1.94-1.29-1.35-2.51-1.68-3.77.17a21.83,21.83,0,0,1-2.85,3.2c-.45.44-1.19,1.2-1.79.34s-.15-1.53.84-1.89a4.22,4.22,0,0,0,1.49-.91c.3-.29.64-1,.51-1.18-.45-.55-.75.14-1.1.35s-.78.3-.83-.15c-.29-2.67-2.7-3.48-4.33-4.93-1.32-1.18-.3-1.94.5-2,1.72-.05,3.78-.9,5.14.3,2.35,2.07,4.16,1.46,6.07-.4a2.55,2.55,0,0,1,2-.74c.72.9.17,1.85.09,2.78a3.07,3.07,0,0,0-2.28,0c-2.38,2.58.36,2.18,1.56,2.68l1.4,3Zm-9.05-5.4c-.2.08-.48.1-.55.24a.56.56,0,0,0,.2.52c.3.15.67.12.72-.31C158.37,134.11,158.11,133.94,158,133.79Z"/><path class="a" d="M138.28,137.07c-1.74-.95-4.81-1.21-2.26-4.37l.77,0c2.8,3,4.07-.15,5.8-1.47l-.05.05c1.56.59,2.49,1,2.15,3.39-.26,1.83-3.5,4.06-.22,6.14.24.16-.67.91-.94.67-1.89-1.63-3,0-4.31.89-.75.47-1.9,1.7-2.38.94s-1.19-2.39-.29-3.61c.64-.86,1.52-1.55,1.69-2.69.42-.33,1.22-.53.61-1.28-.24-.3-.86-.8-1.1-.27C137.59,135.86,138.08,136.53,138.28,137.07Zm.93,3c.09-.64-.1-.9-.52-.73a1.7,1.7,0,0,0-.74.65c-.2.31-.1.75.31.68S139,140.21,139.21,140Z"/><path class="a" d="M94.32,136.32c1.64-.48,3-.63,4.45.93,1,1.07,2.43,2.55,4.24.58.69-.75,1.33-.16,1.06.83a6.44,6.44,0,0,0-.28,3.83c1,3.28.53,3.77-3,3.79-.35,0-.82,0-1,.2-.86.88-1.83,2-3,1s-.65-2.65-.1-3.65c1.2-2.15-.5-3.85-.68-5.72-.16-1.7-1.54.28-2.43.38ZM99,144.63l-.21-.6c-.18.11-.46.18-.53.34s.1.39.16.59Zm3.65.43a4.35,4.35,0,0,0,.12-1.07.65.65,0,0,0-.43-.41c-.43-.07-.55.26-.42.58A4.78,4.78,0,0,0,102.61,145.05Zm-4-5.52.8.4c.05-.18.2-.46.13-.53a4,4,0,0,0-.75-.52Z"/><path class="a" d="M87,144.79c-1.52.18-2.12,1.2-2.69,2.51-.75,1.74-1.87,3.15-3.44.54-.45-.75-.93-1.56-1.94-.9-1.5,1,.45,1.16.41,1.52-.12,1-1,1.3-1.84.76a1.82,1.82,0,0,1-.75-2.23c2-2.93-.48-4.69-1.57-6.82-.29-.57-1.29-1.14-.38-1.77.72-.49,1.25.32,1.72.85.63.71,1.28,1.41,1.92,2.11-.93.34-.67.83-.09,1.23a1.49,1.49,0,0,0,.9.1c.18-.73-.61-.88-.87-1.36.82-.27,1.88-.55,2.33.23,1.29,2.27,2.07,2,3.33-.1.78-1.32,1.52.47,2.34.64l0,0c-.8.71-1.42,1.42,0,2.16Zm-4.29,1.66c-.15.16-.4.32-.38.45s.26.3.4.44c.14-.15.39-.3.38-.44S82.9,146.6,82.75,146.45Z"/><path class="a" d="M110.9,300.45c-2.19-2.36-2.13-5.54-2.76-8.37a90.66,90.66,0,0,1-.63-34.5c.14-.84.08-1.85.93-2.46a3.56,3.56,0,0,1,0,2.44,94.22,94.22,0,0,0,2,40.11,22.35,22.35,0,0,1,.39,2.82Z"/><path class="a" d="M239.82,323.76l-1.52-4.47c-.33-1.6-1.84-.87-2.72-1.38-.6-1.12-4.08-2.42.2-3.25a1.11,1.11,0,0,0,.57-.39c1.52-1.82,1.63-1.86,2.47.49,1,2.9,1.87,5.87,2.75,8.82.13.45.74,1.24-.29,1.31-.47,0-1-.54-1.46-.84Z"/><path class="a" d="M62.63,258c1.66-1.54,3.1-.91,4.2.63a3,3,0,0,1,0,4c-1.32,1.47-3.1,1.74-4.46.46-1.61-1.5-3.33-1.53-5.25-1.48-1,0-2.52.63-2.66-.82s1.47-1.37,2.45-1.28A9.45,9.45,0,0,0,62.68,258c-.21.43-.45.84-.63,1.28A1.83,1.83,0,0,0,63.34,262a1.71,1.71,0,0,0,2.33-1.08,2,2,0,0,0-1.3-2.57A8,8,0,0,0,62.63,258Z"/><path class="a" d="M87.22,187.76c-.38,5.45-.58,11.91-2.5,18.15-.13.43-.49,1.17-.67,1.15-.66-.07-.4-.68-.29-1.06,2.56-8.63,2.22-17.48,2-26.32A8,8,0,0,1,86,178c.65.37.41,1.05.56,1.6C87.23,182,87.05,184.39,87.22,187.76Z"/><path class="a" d="M65.47,234.35c1.59.18,2.75.5,3.39,1.65a2.8,2.8,0,0,1-.47,3.32c-.9,1.06-2.18,1.75-3.48,1a12.29,12.29,0,0,0-6.71-2,1,1,0,0,1-1.12-1.08c0-.27.42-.72.64-.71A13.69,13.69,0,0,0,65.47,234.35Zm2,3.1c0-1.28-.74-1.72-1.84-1.72-.92,0-1.74.34-1.85,1.32-.13,1.15.7,1.76,1.71,1.93S67.26,238.51,67.47,237.45Z"/><path class="a" d="M84,92.56c-.35.64-.84.31-1.13,0-2.72-2.58-4.07-1-5.32,1.58-2,4-2.11,4.16-6.25,2-2.48-1.29-2.79.78-3.82,1.86-.48.49-.92,1.71-1.42,1.34-1-.75.29-1.36.62-2a13.42,13.42,0,0,1,1-1.51c1.2-1.78,2.33-3,4.33-.65,1.6,1.89,3.26,1.76,4.33-.77a22,22,0,0,1,1.55-2.84c.54-.89.94-2.22,2.25-2,1.58.27,2.52,1.72,3.77,2.62C83.93,92.28,83.95,92.44,84,92.56Z"/><path class="a" d="M66.23,281.78a2,2,0,0,0,.27-2.6c-.26-.5-1.48-.9-.44-1.56.59-.37,1.38.26,1.83.81a3.3,3.3,0,0,1,.38,3.7,3.33,3.33,0,0,1-3.88,1.9c-2.29-.53-4.5-1.36-6.92-1a1.08,1.08,0,0,1-1.25-1c0-.73.68-1,1.28-.9,2.05.31,4.48-1.74,6.18,1.21.6,1,1.92.64,2.58-.55Z"/><path class="a" d="M191.41,51.34c0,1.43-4.18,5.49-5.08,4.87a2.36,2.36,0,0,1-.56-3.67,19.09,19.09,0,0,1,3.1-2.42c.55-.4,1-1.3,1.75-1S191.28,50.6,191.41,51.34Z"/><path class="a" d="M205.27,44.44c-.6.16-.78,0-.75-.68.11-2.34,3.72-6.39,6.16-6.93,1.49-.33,1.63.61,1.61,1.63C212.28,39,206,44.33,205.27,44.44Z"/><path class="a" d="M200.89,27.58c-1.87.58-1.34,2.29-1.7,3.59-.16.58-.29,1.28-1.06,1.17-.55-.07-1.54-.51-1.52-.68.47-3.77-3.54-3-4.89-4.89-.39-.55-1.83-.51-1.52-1.11.39-.77,1.5-.31,2.21.13a12.67,12.67,0,0,0,2.28,1.6c1,.34,2.23,1.22,3.15-.3,1.45-2.42,2.16-.54,3,.54Z"/><path class="a" d="M20.91,83.06c-.33-.85-.52-1.8.64-2,1-.16,1,.79,1,1.51,0,2.15.58,3.16,3.17,3,1.87-.09,2.62,2.09,2.46,3.78s.59,3.44-.34,5.06c-1-1.33-.34-3-.88-4.46-.61-1.66-.57-3.84-3.41-2.51-1.15.54-1.75-.28-2-1.38s-.48-2.08-.73-3.12Z"/><path class="a" d="M167.09,110.75l0,0a253.67,253.67,0,0,1-29.65,1,4.79,4.79,0,0,1-1.15-.34,8.53,8.53,0,0,1,1.37-.22c7.75,0,15.5,0,23.24-.66C162.89,110.33,165.1,109.06,167.09,110.75Z"/><path class="a" d="M75.6,236.38c0-6.23,2.73-11.81,4.22-17.68a3.78,3.78,0,0,1,.36-1c1-1.65.31-4,2.24-5.26.11,2-.87,3.65-1.37,5.44-1.73,6.19-3.65,12.33-5.49,18.48Z"/><path class="a" d="M201.84,44.24c0,1.54-4.39,5.4-5.89,5a1.59,1.59,0,0,1-.57-2.81,25.88,25.88,0,0,1,5.1-3.18C201.24,42.84,201.86,43.26,201.84,44.24Z"/><path class="a" d="M76.19,280.64A65.34,65.34,0,0,0,77,292a2.78,2.78,0,0,1-.2,1.31c-.86,0-.55-.78-.66-1.24-.8-3.17-.43-6.41-.57-9.62-.13-3-.39-5.94-.54-8.91,0-.55-.13-1.44.53-1.49s.59.87.6,1.39C76.21,275.87,76.19,278.26,76.19,280.64Z"/><path class="a" d="M28.8,347.28l-2.32.06c-1.65-.44-1.9-2-2.5-3.22l.56-.48,3.5-2.07c-.49,1.75,1.42,2.65,1.5,4.2Z"/><path class="a" d="M25.2,127.66a4.53,4.53,0,0,1-3.34-1,47.52,47.52,0,0,0-10.29-5,6.42,6.42,0,0,1-1.94-.92c-1.1-.83-2.38-1.57-2.65-3.12,1.44-.17,1.74,1.35,2.76,1.84,4.3,2.08,8.58,4.22,12.85,6.35a6,6,0,0,1,2.57,1.89Z"/><path class="a" d="M135.27,85.51c0,1.59-1.25,1.92-2.34,2.31s-2.24,1.66-3.64.91c-.38-.2-.57-1-.57-1.58,0-1.27,4.51-4,5.69-3.46C135.24,84,135.22,84.8,135.27,85.51Zm-3.75,1.88c.84-.37,1.74-.52,1.74-1.57,0-.13-.57-.41-.83-.36-.83.17-1.56.58-1.65,1.54C130.78,87.12,131.3,87.28,131.52,87.4Z"/><path class="a" d="M110,250.41c-1.26-.57-1.91-1-1.28-2.07,2.25-3.69,3.24-7.9,5-11.81.13-.3.41-.67.68-.73.46-.1.52.34.4.67a125.05,125.05,0,0,0-4.43,13.16A4.61,4.61,0,0,1,110,250.41Z"/><path class="a" d="M112.3,93.85c.63-.51,1.28-1.42,2.12-.81s.38,1.62,0,2.3c-1.09,2.18-3.34,2.42-5.4,2.88-.5.11-.83-.4-.91-.9a1.64,1.64,0,0,1,.7-1.87c1.14-.61,2.35-1.1,3.53-1.64a7.51,7.51,0,0,0-.7.8c-.37.57-1.53.6-1.31,1.44.13.51.89.1,1.21-.12C112.24,95.44,114.15,95.26,112.3,93.85Z"/><path class="a" d="M233.81,73.4a1.58,1.58,0,0,0,1.68.25c3,.23,2.42,3,3.23,4.68.18.37-.65,1.47-1,1.15-1.4-1.34-2.48-3-4.29-3.95C232.38,74.94,233.48,74.09,233.81,73.4Z"/><path class="a" d="M172.17,139c-.32,1.28-1.47,2-2.17,3-1.68-.18-1.35-2.52-3-2.77h0l.88-2.91,2-.7.26.19a3.1,3.1,0,0,0,2.09,1.81Z"/><path class="a" d="M93.57,286.38a15.9,15.9,0,0,1,0-1.78c0-.24.3-.45.45-.68a2.83,2.83,0,0,1,.25.64c.74,5.65,1.48,11.3,2.19,17a3.65,3.65,0,0,1-.33,1.26,4.6,4.6,0,0,1-.58-1.22c-.74-5-1.44-10.1-2.16-15.16Z"/><path class="a" d="M233.29,307.7a7.9,7.9,0,0,1-2-1.42c-.6-.81-2-1.31-1.71-2.46.38-1.45,1.85-1.07,3-1.16l0,0c2.86,1.85,3,3.2.67,5Z"/><path class="a" d="M153.39,75.71c.06,2.54-1.72,2.92-3.35,3.16-1.16.17-1.29-1.07-1.18-1.81.31-2,2.26-2.45,3.72-2.87C154.23,73.7,152.73,75.48,153.39,75.71Z"/><path class="a" d="M40.47,104.36c-.85.12-2,.2-2.11-.76-.25-2.49-1.2-3.75-3.86-3.14-.15,0-.4-.41-.61-.64a8,8,0,0,1,.87-.44c3.48-1.28,5-.41,5.72,3.29.09.47.22.93.33,1.39Z"/><path class="a" d="M121.09,220.66c-1,4.18-3.2,7.88-4.77,11.82-.11.27-.47.44-.71.66-.08-.21-.28-.51-.21-.61,2.58-3.67,1.21-9.15,5.49-12Z"/><path class="a" d="M178.21,59.39c1.07.54,1.52-.19,2-.87.3-.43,0-1.49.8-1.26s.65,1.28.45,1.88c-.68,2-2.59,2.81-4.24,3.49-1.15.47-1.25-1.21-1.23-2C176,59.13,176.84,58.57,178.21,59.39Z"/><path class="a" d="M172,64.89c.05,1.55-2.47,4-4,3.84a2.68,2.68,0,0,1-.63-.22c.11-.31.14-.73.36-.91.63-.54,1.37-.94,2-1.48.2-.17.17-.6.24-.92a3.3,3.3,0,0,0-.62.07c-.51.15-1.26,1.58-1.4.39s1.53-2,2.77-2.37S172,64,172,64.89Z"/><path class="a" d="M69.11,299.06c1.64-2.44,3.37-1.33,4.61.2a2.92,2.92,0,0,1-.75,4.4c-1.84,1.12-3.95,1.29-4.69-1.62l.25-.21c1.12.62,2.23,1.53,3.54.45a1.79,1.79,0,0,0,.41-2.26C71.75,298.38,70.37,298.91,69.11,299.06Z"/><path class="a" d="M90,105.67c-.9,0-1.75,0-1.41-1.08.6-1.92,2.5-2,4-2.53.81-.28,1.58.15,1.42,1C93.58,105.37,91.44,105.14,90,105.67Z"/><path class="a" d="M100.06,236.39c-.62,5.72-3,11-3.91,16.7,0,.27-.4.49-.61.74a3,3,0,0,1-.09-1c1.43-5.51,1.88-11.29,4.66-16.42Z"/><path class="a" d="M178.93,44c-.7.07-1.06.22-1.31.12-3.16-1.29-3.2,1.24-3.85,3.09s-.47,4-3.21,4a10.45,10.45,0,0,1-1.38-.18c.4-.13.8-.28,1.2-.39,2.68-.69,2.25-3.18,2.61-5,.61-3.08,2.26-3.24,4.65-2.3C178,43.5,178.26,43.67,178.93,44Z"/><path class="a" d="M82.81,268.09c0,5.1-.29,10.22.61,15.3a10.07,10.07,0,0,1-.17,2.46c-.73-.59-.45-1.47-.53-2.2-.62-5.18-1.18-10.37.13-15.53Z"/><path class="a" d="M25.94,240.7c-1,1-.23,4-2.24,3.26-1.64-.59,0-2.7.53-4,.64-1.55.53-5.15,3.83-2.12C26.37,238.07,25.9,239.19,25.94,240.7Z"/><path class="a" d="M81.1,107.55s-.06-.3-.19-.36c-.56-.23-2.07,1.27-1.61-.43.31-1.17,2.32-1.38,3.74-1.51.71-.06,1,.37,1,1.1a2.47,2.47,0,0,1-2,2.52C80.75,109.19,78.45,110.18,81.1,107.55Z"/><path class="a" d="M103.61,99.26a2,2,0,0,1-1.85,2.2c-1.22.19-2.35,1.42-3.61.6a1.51,1.51,0,0,1-.13-2c1.15-1.48,2.93-1.83,4.66-2.07C103.38,97.92,103.57,98.64,103.61,99.26Zm-2.2,0a5.12,5.12,0,0,0-1.18.91c-.27.36.14.72.48.6a3.36,3.36,0,0,0,1.39-.88C102.35,99.58,102.07,99.24,101.41,99.24Z"/><path class="a" d="M105.81,212.6c-1.88,4.93-3.54,10-6.48,14.4l0,0c1.25-5.21,3.07-10.17,6.48-14.4Z"/><path class="a" d="M14.37,93.13c.35-.88-.3-3,1.09-2.63,1.59.44,1,2.84,1.47,4.37.24.82-.28,1.63-1,1.49C14.31,96,14.42,94.53,14.37,93.13Z"/><path class="a" d="M46.83,106.1a6.06,6.06,0,0,1,.34-1.74c.65-1.21,1-3.22,2.61-3s3.16,1.49,4.71,2.34c.1.05.13.46,0,.6-.3.45-.91.66-1.23.33-3-3-4.7-.7-6.51,1.41Z"/><path class="a" d="M97.14,271.79c-.39-2.13.8-4.91.76-7.78,0-.36-.16-1,.55-.92.11,0,.24.63.23,1-.14,4.18-1.16,8.3-.79,12.51,0,.29-.24.6-.38.9a3.2,3.2,0,0,1-.35-1C97.11,275.19,97.14,273.88,97.14,271.79Z"/><path class="a" d="M68.28,302c-1.63.21-3.26.45-4.9.6-.56.05-1.28,0-1.42-.72-.18-.93.53-1.18,1.26-1.33,1.72-.37,3.56,0,5.2-.84l.11,2.08Z"/><path class="a" d="M219.25,296.32c-.17.61-.46,1.93-.91,1.69-1.18-.63-2.58-1.6-3-2.75s1.13-1.24,2.09-1.08C218.57,294.36,219.73,294.62,219.25,296.32Z"/><path class="a" d="M181.91,44.28a3.15,3.15,0,0,1-.49-.59c-.35-.88,1.69-6.36,2.51-6.81a2.67,2.67,0,0,1,2.38.17c.31.12,1,.78.21.75-3.87-.17-3.17,3.1-4.1,5.13C182.24,43.34,182.11,43.76,181.91,44.28Z"/><path class="a" d="M102.23,229.91c.56-3.73,2.51-6.95,3.81-10.41.11-.31.54-.79.67-.75.67.22.31.75.15,1.11-1.52,3.36-2.2,7.11-4.61,10.06Z"/><path class="a" d="M84.88,223c-.72-.19-.37-.7-.26-1q1.35-4.07,2.76-8.13c.11-.3.44-.53.66-.8.05.31.23.66.14.93-.93,2.83-1.9,5.65-2.88,8.47A2.53,2.53,0,0,1,84.88,223Z"/><path class="a" d="M64,102.09c-.18.7-.65.43-1.06.26-1.71-.69-2.86-2.67-5.1-2.13-.45.11-.65-.31-.47-.67a5.91,5.91,0,0,1,1-1.44C58.55,97.89,64,101.71,64,102.09Z"/><path class="a" d="M80.65,296.15a44.37,44.37,0,0,1-1.39-11.92,3.9,3.9,0,0,1,.26-1,3.47,3.47,0,0,1,.34.92c.27,4,.51,8,.75,12Z"/><path class="a" d="M124.71,213.48a18.62,18.62,0,0,1-3.62,7.17l-.2-.17c.66-2.67.24-5.86,3.54-7.24Z"/><path class="a" d="M17.2,325.68a8.3,8.3,0,0,1,.58.89c.48,1,1.88,1.7,1.07,3.11a1,1,0,0,1-1.52.41c-1.38-.81-1.46-2-1-3.39.12-.34.22-.68.33-1Z"/><path class="a" d="M24.55,343.64l-.56.48a3.93,3.93,0,0,1-1.67-2.19c-.36-.83-1.07-1.82-.12-2.55s1.74.09,2.49.63Z"/><path class="a" d="M40.47,104.36l.34-.3c2.69-1.32,3.73,2.2,6,2l-.05-.05c-.07.93-.72,2.47-1.32,1.54C44.17,105.6,41.62,106.13,40.47,104.36Z"/><path class="a" d="M21,192.33l-.32,2.09c-.86-.51-.4-1.4-.59-2.09-.54-1.94-1-3.9-1.49-5.87a3.33,3.33,0,0,1,.06-1c.23.23.58.41.68.69C20.05,188.17,21.15,190.07,21,192.33Z"/><path class="a" d="M86.42,142.1c-.57-2.91,1.31-3.5,3.55-3.73l-.75,3.41L89,142l-.83,0H86.39Z"/><path class="a" d="M156.8,55.46c.25.18.61.38.59.43-.76,2-1.47,3.93-2.38,5.81-.25.52-1,.12-.84-.43.5-1.81,1.14-3.58,1.79-5.35C156,55.68,156.52,55.6,156.8,55.46Z"/><path class="a" d="M73.72,108.69c1-.05,1,.71.88,1.42-.2,1.62-1.53,1.91-2.8,2.21-.21,0-1-.16-.56-.33C72.81,111.32,71,108.41,73.72,108.69Z"/><path class="a" d="M123.81,91.49a5.36,5.36,0,0,1-3.62,2c-1.12.11-1.34-.81-1.18-1.71s.72-1,1.19-.25C121.24,93.07,122.51,90.46,123.81,91.49Z"/><path class="a" d="M85.71,267a3.23,3.23,0,0,1,0-.41q.52-3.52,1-7c.77,2.26-.33,4.43-.34,6.65,0,.24,0,.48-.05.72q-.15,1.56-.31,3.12C85.29,269.09,86,268,85.71,267Z"/><path class="a" d="M183.68,97.95a2,2,0,0,1-2.27,1.58c-.72,0-1.59-.12-1.29-1.19s1.42-1.09,2.38-1.14C183.16,97.18,183.67,97.32,183.68,97.95Z"/><path class="a" d="M96.47,223.44c.06,3-1.69,5.42-2.4,8.17-.07.28-.44.49-.67.73a2.62,2.62,0,0,1,0-1c1-2.66,1.31-5.58,3.17-7.89Z"/><path class="a" d="M34.41,96.3c-.06.37-.36,1.22-.52.89a5.63,5.63,0,0,0-3.54-3,1.71,1.71,0,0,1,1.53-.76C33.82,93.39,34.25,94.7,34.41,96.3Z"/><path class="a" d="M74.15,243.6a23.56,23.56,0,0,1-.7,8.14c-.08.34-.21.66-.31,1a4,4,0,0,1-.38-1.13,17.74,17.74,0,0,1,1.44-8Z"/><path class="a" d="M27.92,230.8l1.15-.83a3.46,3.46,0,0,1,.06,1.37A8.25,8.25,0,0,1,27,234.89c-.3.25-.67.09-.71-.39C26.15,233,27,231.87,27.92,230.8Z"/><path class="a" d="M54.08,353.08l-1.49.58c-1.65-2.85,1.24-3.41,2.56-4.29.74-.5.26.94.29,1.51A2.12,2.12,0,0,0,54.08,353.08Z"/><path class="a" d="M100.11,214.81a19.29,19.29,0,0,1-3.64,8.62l0,0c.52-3.17,1.35-6.22,3.52-8.72Z"/><path class="a" d="M66,34a3.28,3.28,0,0,1-2.36,2.24c-.47.17-.91-.38-.75-.89A3,3,0,0,1,65.17,33C65.69,32.9,65.93,33.42,66,34Z"/><path class="a" d="M67.06,357.33l-.17,2.48.1.91-2.25,1-.67-3.69,1.57-.54.29,0,.28-.07,0-.48Z"/><path class="a" d="M82.84,268.12c.13-2.83-.29-5.69.39-8.49a3.36,3.36,0,0,1,.55-.88c.08.32.28.67.2.95-.81,2.74,0,5.7-1.17,8.39Z"/><path class="a" d="M72.66,142.64l-2.09.14.49-4.3.95-.35C73.2,139.49,73.12,141,72.66,142.64Z"/><path class="a" d="M38.87,353.76a2.39,2.39,0,0,1-.71,0c-1-.28-2.18,1.3-2.87,0-.58-1.1.88-1.79,1.34-2.71A4.22,4.22,0,0,1,38.87,353.76Z"/><path class="a" d="M89.22,141.78l.75-3.41,1-2,.46.41.62,1.67C91.08,139.58,91.81,142.07,89.22,141.78Z"/><path class="a" d="M19.44,167.28c-1.12-.41-2.27-.77-3.36-1.25-.81-.36-2.81.38-2.16-1.31.52-1.37,1.78.32,2.76.44a4,4,0,0,1,2.77,2.1Z"/><path class="a" d="M75.39,265.83l.56-3.45c.68,1.2.17,2.51.34,3.75a1,1,0,0,1,0,.36c-.2.86.4,2.5-.58,2.44-1.15-.07-.3-1.52-.32-2.37a4.93,4.93,0,0,1,.09-.71Z"/><path class="a" d="M56.89,275.33c.56,0,.8,0,1,0l2.44.21c-.66.71-1.54.26-2.3.44A3.23,3.23,0,0,1,57,276c-1.22-.13-3.61.53-3.46.06C54.08,274.45,56,275.94,56.89,275.33Z"/><path class="a" d="M159.32,72.3c.2,1,0,2-1,2s-.75-1.31-.82-2a1.37,1.37,0,0,1,1.49-1.6C160.07,70.8,159.17,71.81,159.32,72.3Z"/><path class="a" d="M112.27,193.89c1.41,1.76,0,2.26-1.28,2.78a1.17,1.17,0,0,1-1-.15c-.54-.47-.11-.84.31-1.07.76-.41.67-2,2-1.52Z"/><path class="a" d="M225.56,292.65c1.69.52,3.66.39,4.86,2.06h-2.94l.08,0c-.71-.32-1.44-.61-2.13-1C224.5,293.31,224.41,292.9,225.56,292.65Z"/><path class="a" d="M92.13,225.56a16.4,16.4,0,0,1-2.88,8.64l0,0a23.54,23.54,0,0,1,2.89-8.63Z"/><path class="a" d="M242.62,332.15c.58-2.33-1.41-1.9-2.55-2.44-.37-.18-1.52-.59-.86-.85a4.22,4.22,0,0,1,3.93.95c1,.81.9,1.86-.57,2.33Z"/><path class="a" d="M89.89,265.61c.49-1.15-.52-2.63.94-3.5,0,1.15,0,2.3-.13,3.45s-.25,2.08-.38,3.12Z"/><path class="a" d="M141.39,81.47c-.44.74.5,2.19-1,2.3-.89.07-.85-1-.94-1.66-.15-1,.55-1.54,1.47-1.62S141.48,81,141.39,81.47Z"/><path class="a" d="M131.78,132.73a11.09,11.09,0,0,1,1-1.4c1.24-1.22,2.2-2.76,3.88-3.48,0,0,.28.4.24.44-1.18,1.29-2.35,2.6-3.61,3.8a4.58,4.58,0,0,1-1.61.6Z"/><path class="a" d="M69.37,117.27a1.55,1.55,0,0,1-1.33,1c-1.26.29-2.54.47-3.82.67a1.24,1.24,0,0,1-.19-.47A12.58,12.58,0,0,1,68.74,117C68.93,117,69.15,117.18,69.37,117.27Z"/><path class="a" d="M163.09,70.14c-.21.88-.26,2-1.45,2.12-.67.09-.73-.54-.56-1,.31-.84,0-2.1,1.14-2.39C162.9,68.7,163,69.51,163.09,70.14Z"/><path class="a" d="M168,96.55l-1.11,1c-.16-.17-.43-.33-.45-.51-.09-1.07-1.85-1.73-.76-3a1.08,1.08,0,0,1,.87-.39C168,94.11,167.63,95.54,168,96.55Z"/><path class="a" d="M84.93,1.3c0,.88-.11,1.51-.91,1.4s-1.53-.33-1.51-1.19a1.83,1.83,0,0,1,.8-1.44C84.49-.32,84.26,1.16,84.93,1.3Z"/><path class="a" d="M200.86,27.63c.19-.14.35-.35.56-.41.89-.22.89-2.38,2.33-1.18.74.61.28,1.67-.2,2.23-1.21,1.41-2,.28-2.67-.69Z"/><path class="a" d="M20.82,101.15c-.16.59-.66.92-1.07.7-1.06-.59-1.4-1.78-1.94-2.79,0,0,.56-.47.73-.4A4,4,0,0,1,20.82,101.15Z"/><path class="a" d="M25.17,127.71c2.07-.21,3.87.79,5.77,1.32a3,3,0,0,1,.76.51c-.33.07-.69.26-1,.18-1.91-.49-4-.64-5.52-2.06Z"/><path class="a" d="M131.56,74.6a4.91,4.91,0,0,1-1.3.35,5.19,5.19,0,0,1-3.44-1.63c-.2-.23.44-.46.73-.35C128.76,73.43,130,73.94,131.56,74.6Z"/><path class="a" d="M129.59,197.79l.73,1.12c-1.27,1.35-2.86.82-4.36.75l.08,0-.24-.92c1,.11,1.78,0,1.07-1.27l1.83-.73Z"/><path class="a" d="M91.39,136.8l-.46-.41-.16-.27-.09-.28a4.77,4.77,0,0,0,2.26-1.62c.35-.47.87-1.07,1.41-.59s-.06,1.3,0,2Z"/><path class="a" d="M105.13,82.29a9.1,9.1,0,0,0-2,.57c-.8.43-1.42,1.32-2.24,1.52-.43.1-.11-.82.21-1.06,1-.76,1.36-2.8,3.3-1.75.29.16.48.51.71.77Z"/><path class="a" d="M95.11,260.81l-1.25,4.34c-.48-1.57.06-3.07.36-4.57.12-.59-.25-1.39.61-1.73Z"/><path class="a" d="M66.26,356.71a4.32,4.32,0,0,0-2.85-1.63L63.1,353C65.4,353.17,66.45,354.42,66.26,356.71Z"/><path class="a" d="M194,30.41c.38,0,.83.3.56.6-.84.94-1.8,1.77-2.72,2.64a3.29,3.29,0,0,1-.16-1A2.37,2.37,0,0,1,194,30.41Z"/><path class="a" d="M88.15,142l.83,0c1.36,2.32-.45,2.44-1.93,2.79l-.68-.58Z"/><path class="a" d="M164.86,124.12l-.81,1.47c-.6-.2-1.57,0-1.43-1.06.11-.81.51-1.67,1.43-1.73C164.81,122.75,164.68,123.61,164.86,124.12Z"/><path class="a" d="M100.11,236.42a9.5,9.5,0,0,1,2.13-6.51h0a9.65,9.65,0,0,1-2.19,6.46Z"/><path class="a" d="M244.1,335.78c-1.58-.77-1.47-2.22-1.48-3.63l-.05,0c1.11,1,3.89,1.22,1.47,3.61Z"/><path class="a" d="M232.61,302.65l-2.17-1.49,0,0a9.4,9.4,0,0,0,1.74-.21c.71-.22,1.38-1.85,2.1-.17s-.54,1.75-1.69,1.79Z"/><path class="a" d="M108.84,112.54c-1-.27-1.95.28-2.78-.39,1.52-.12,3-.3,4.55-.35a5.77,5.77,0,0,1,1.59.41C111.11,112.88,109.93,112.51,108.84,112.54Z"/><path class="a" d="M64.25,113.88c-.48-.46-1.47-1-1.5-1.54s1.07-.62,1.71-.71c.84-.12,1.37.24,1.13,1.18A1.24,1.24,0,0,1,64.25,113.88Z"/><path class="a" d="M11.51,96.7c.23.91,1.22,1.88.09,2.72-.61.45-1.45,1.33-2.27.13l.05,0c.15-1.38,1.26-2,2.16-2.87Z"/><path class="a" d="M69.52,359.68a2,2,0,0,1,1-1.82,2.42,2.42,0,0,0,2.36.22l-.9,2.19-1.66-.15Z"/><path class="a" d="M89.25,234.19a15.15,15.15,0,0,1-2.16,7.2l0,0a17.32,17.32,0,0,1,2.16-7.2Z"/><path class="a" d="M75.56,236.35a14.58,14.58,0,0,1-1.41,7.25l0,0a13,13,0,0,1,1.4-7.25Z"/><path class="a" d="M24.33,107a1.76,1.76,0,0,1-1.6-1.89c0-.22.59-.64.63-.61a7.69,7.69,0,0,1,1.89,1.72C25.53,106.67,24.77,106.83,24.33,107Z"/><path class="a" d="M134.85,70.56c-.65-.13-.47-.51-.32-.76.71-1.16.78-2.83,2.42-3.25a.41.41,0,0,1,.41.68C136.56,68.38,135.68,69.48,134.85,70.56Z"/><path class="a" d="M235.69,311.18c-.59-.22-1.6-.22-1.29-1.12a2.17,2.17,0,0,1,1.67-1c.68,0,.64.86.73,1.39C237,311.42,236.25,311.21,235.69,311.18Z"/><path class="a" d="M126,199.66c.16.51,1.72.67.58,1.44-1.52,1-2.45.29-2.67-1.45l0,0H126Z"/><path class="a" d="M16.31,320.74l.24,3.5,0,0c-2.08-.12-2.29-1.22-1.48-2.84Z"/><path class="a" d="M231.9,71.43c1.23-1.42,1.71-.47,2.13.67-.19.14-.37.29-.57.4-.66.39-1.26,1.58-1.89,1.15S231.84,72.21,231.9,71.43Z"/><path class="a" d="M90.68,135.84l.09.28-2.33.58c.18-.54.2-1.23.56-1.58C89.94,134.24,90.46,134.81,90.68,135.84Z"/><path class="a" d="M113.72,76.66c1,.36,2,.56,2.39,1.43.17.33-.48.35-.71.2-.74-.46-1.94,0-2.31-1.13C113.05,77.07,113.52,76.82,113.72,76.66Z"/><path class="a" d="M239.82,323.76V324c-1.61.5-3-.17-4.46-.73.88-.83,1.73-1.39,2.84-.23C238.56,323.48,239.27,323.54,239.82,323.76Z"/><path class="a" d="M87.82,226.29a2.47,2.47,0,0,1,0,.35,10.28,10.28,0,0,1-1.67,4.94s-.24-.09-.24-.13a8,8,0,0,1,2-5.12Z"/><path class="a" d="M78.47,246.48a19.21,19.21,0,0,1-.89,5.65c-.07.27-.42.21-.43-.13a10.35,10.35,0,0,1,1.36-5.49Z"/><path class="a" d="M17.79,263.35c-.35.84,0,2.1-1.08,2.44-.72.23-.46-.6-.38-1,.2-.9.19-2,1-2.49C17.85,262.07,17.81,262.9,17.79,263.35Z"/><path class="a" d="M20.87,83c0,.11-.08.22-.13.33a4.48,4.48,0,0,1-2.31,2.58c-.41.15-.44-.41-.33-.73.46-1.33,1.16-2.37,2.82-2.13Z"/><path class="a" d="M229,53.05c-.28.75-1,.93-1.66,1.08-.46.1-1,.09-.78-.64s.53-1.35,1.43-1.27A1,1,0,0,1,229,53.05Z"/><path class="a" d="M93.74,87.66c-.46.7-1,.48-1.35.35-.6-.2-1.58,0-1.64-.89,0-.48.73-.51,1.16-.35A18.21,18.21,0,0,1,93.74,87.66Z"/><path class="a" d="M95,242.09c-.3.9-.31,1.78-1,2.35a3,3,0,0,1-.23-1c.1-.79,0-1.69.89-2.17Z"/><path class="a" d="M144.17,81.85c-.78-.34-.36-1-.31-1.48s-.25-1.38.72-1c.28.1.33,1,.38,1.56A.81.81,0,0,1,144.17,81.85Z"/><path class="a" d="M17.37,180.61c-.25.28-.55.72-.63.68-.85-.41-1-1.26-1.07-2.06-.06-.42,0-1.25.57-.8S17,179.83,17.37,180.61Z"/><path class="a" d="M27.15,184.87c0,.37-.08.78-.51.69a1.65,1.65,0,0,1-1.28-1.5c-.07-.49.05-1.06.72-.88S26.89,184.24,27.15,184.87Z"/><path class="a" d="M69.84,276.72a3,3,0,0,1-.69-.1c-1.29-.52-2.57-1.05-3.85-1.58.14-.13.26-.36.41-.39,1.89-.34,3.11.68,4.13,2.07Z"/><path class="a" d="M216.68,291.78l2,.07c-.59,2-1.93,1.17-3.13.84-.29-.08-.77-.36-.26-.68A3.73,3.73,0,0,1,216.68,291.78Z"/><path class="a" d="M59.69,352.3c-1.34.49-2,0-2-1.4C59.06,350.33,59.65,350.9,59.69,352.3Z"/><path class="a" d="M27.68,77a.82.82,0,0,1,.94.75c.07.5-.09,1-.7.87a1.17,1.17,0,0,1-.75-.59A.7.7,0,0,1,27.68,77Z"/><path class="a" d="M208.66,79.16c-.2-.17-.59-.34-.6-.53a1.43,1.43,0,0,1,1.1-1.52.84.84,0,0,1,.7.44C210,78.36,209.4,78.75,208.66,79.16Z"/><path class="a" d="M235.58,317.91c.88.51,2.39-.22,2.72,1.38-1.11-.11-2.38.29-3.29-.47C233.72,317.75,235.09,318,235.58,317.91Z"/><path class="a" d="M69.73,133.49c0-.11-.05-.22-.09-.33-.28-.89-.58-1.79.45-2.42a.6.6,0,0,1,.53.22c.22,1,.54,2.06-.82,2.57Z"/><path class="a" d="M83.41,228.44c-.51.89-.33,2-1.27,2.58a2.59,2.59,0,0,1-.1-.95c.26-.88.19-1.91,1.08-2.52Z"/><path class="a" d="M69.15,29.77l-.9,1c-.35.38-.59,1.24-1.25.77-.83-.59-.08-1.2.31-1.69A6.33,6.33,0,0,1,68.37,29Z"/><path class="a" d="M60.53,296.22c.58.13,1.31-.18,1,.6-.2.59-.9.61-1.47.63-.34,0-.78-.07-.68-.49A.88.88,0,0,1,60.53,296.22Z"/><path class="a" d="M110.87,300.48c.08.09.19.16.23.27.49,1.2,1,2.41,1.44,3.61-.19,0-.51.19-.55.13a5.93,5.93,0,0,1-1.09-4Z"/><path class="a" d="M146.69,60.87c.4.06.7.3.49.68-.33.61-.67,1.41-1.21,1.66s-.58-.52-.54-.92A1.38,1.38,0,0,1,146.69,60.87Z"/><path class="a" d="M83.36,242.42a1.07,1.07,0,0,1-.44-1.39c.19-.65.34-1.62.79-1.82s.4.56.32.9C83.87,240.88,83.6,241.62,83.36,242.42Z"/><path class="a" d="M29.23,109.92c-.28.4-.41.81-.63.87-.67.17-1.08-.25-1.2-.87a.51.51,0,0,1,.59-.64A5.55,5.55,0,0,1,29.23,109.92Z"/><path class="a" d="M28.8,347.28l.75-1.51c.71-.15,1.43-.62,2.11.08C30.68,346.26,30.51,348.31,28.8,347.28Z"/><path class="a" d="M87.09,241.4c-.15,1.48.16,3-.85,4.35,0,0-.24,0-.24,0a8.8,8.8,0,0,1,1.12-4.28Z"/><path class="a" d="M81.36,250.06c.2-1.48.17-3,1-4.36,0,0,.22.06.23.11.24,1.6-.52,2.91-1.24,4.22Z"/><path class="a" d="M74.55,22.4c-.08.77-.33,1.31-1,1.42s-1.07-.3-.9-.76.76-.85,1.22-1.17C73.94,21.83,74.35,22.24,74.55,22.4Z"/><path class="a" d="M100.08,252.94a9.8,9.8,0,0,1,1.45-5.75l0,0a10.24,10.24,0,0,1-1.44,5.76Z"/><path class="a" d="M100,252.91c0,1.51.32,3.06-.67,4.41,0,0-.26,0-.26,0,.08-1.5.06-3,1-4.34Z"/><path class="a" d="M124.49,126.14c.3.45.57.67.61.93.07.49-.16.93-.71.91-.23,0-.66-.43-.63-.56A5.74,5.74,0,0,1,124.49,126.14Z"/><path class="a" d="M41.64,63.09c-.24.32-.38.71-.59.76a.74.74,0,0,1-.92-.72c0-.19.4-.56.63-.58S41.27,62.86,41.64,63.09Z"/><path class="a" d="M184.34,143.5c.43.08,1.53-1.14,1.13.48a3.5,3.5,0,0,1-1.88,2.41l0,0c-.23-1.07.47-1.92.67-2.88Z"/><path class="a" d="M9.44,163c0-.56,0-1.12,0-1.68,0-.31.21-.93.46-.63s.2,1.07.19,1.62C10.1,162.6,10.14,163,9.44,163Z"/><path class="a" d="M78.62,115.44c-.53.16-1.06.36-1.61.47-.27.05-.91,0-.71-.25a3.17,3.17,0,0,1,1.54-.71C78.1,114.87,78.51,114.79,78.62,115.44Z"/><path class="a" d="M68.93,27.55a3.4,3.4,0,0,1,.61-.86c.56-.41,1-1.81,1.86-.62.45.65-.78,1-1.18,1.51Z"/><path class="a" d="M72,102.68a2.07,2.07,0,0,1-.77.27c-.44,0-.93-.2-.64-.77.1-.2.58-.28.88-.28S72.07,102.13,72,102.68Z"/><path class="a" d="M57.61,44.89a7.46,7.46,0,0,1-.61.88c-.37.41-.6,1.08-1.32,1a.71.71,0,0,1-.42-.51c-.1-.95.57-1.19,1.32-1.29a8.25,8.25,0,0,1,1.07,0Z"/><path class="a" d="M240.71,82.56c-.77.13-1.13.32-1.31.2a8.94,8.94,0,0,1-1.19-1.06c.27-.08.6-.31.8-.22A13.22,13.22,0,0,1,240.71,82.56Z"/><path class="a" d="M239.79,86.93c-.47,0-.75-.35-.61-.67a4,4,0,0,1,1.05-1.39c.3-.24.74.09.71.47A1.91,1.91,0,0,1,239.79,86.93Z"/><path class="a" d="M19.43,335c.89.15,1.66.44,1.5,1.55,0,.26-.6.68-.62.67a2.73,2.73,0,0,1-.86-2.23Z"/><path class="a" d="M11.54,96.73c.08-.91.07-1.89,1.18-2.23.1,0,.41.26.44.43.22,1.29-.7,1.55-1.65,1.78Z"/><path class="a" d="M68.93,27.55l1.29,0a2.12,2.12,0,0,1-1.07,2.19L68.37,29Z"/><path class="a" d="M22.88,248a.86.86,0,0,1-.79.76c-.4.07-.75-.19-.63-.56a1.8,1.8,0,0,1,.79-1C22.6,247.08,22.85,247.44,22.88,248Z"/><path class="a" d="M234,312.9c.28.19.89.39.94.69.09.47-.45.33-.7.2a7.31,7.31,0,0,1-1-.71Z"/><path class="a" d="M233.23,307.66c.08.4,1.21.9,0,1.14a1.41,1.41,0,0,1-1.65-.86l1.7-.24Z"/><path class="a" d="M48.54,54.45a11.46,11.46,0,0,1-1.2.73c-.1,0-.32-.17-.49-.26a11.69,11.69,0,0,1,1-.92C47.92,54,48.2,54.22,48.54,54.45Z"/><path class="a" d="M230.44,301.16a3.92,3.92,0,0,1-2.95-.61c-.06,0,.07-.45.09-.45a4.84,4.84,0,0,1,2.83,1.09Z"/><path class="a" d="M11.81,298c-.39-.12-.56-.39-.4-.75.07-.16.34-.22.52-.33l.43.78Z"/><path class="a" d="M52.75,50.59c-.16.43-.31.95-.86.91-.4,0-.51-.44-.34-.78s.38-.66.65-.75S52.77,50.19,52.75,50.59Z"/><path class="a" d="M225.44,49.8c-.83-.26-1.08-.56-.87-.9s.55-.31.86-.36c.08,0,.33.37.3.54A2.61,2.61,0,0,1,225.44,49.8Z"/><path class="a" d="M47.61,132.85a4.13,4.13,0,0,1-1,.68.45.45,0,0,1-.56-.61,2.09,2.09,0,0,1,1.06-.82C47.39,132,47.77,132.17,47.61,132.85Z"/><path class="a" d="M130.27,134.82l-.65-1.39-.06,0,2.22-.74-.05,0c.57,1.38-.22,1.91-1.38,2.22Z"/><path class="a" d="M129.61,133.42c-.51-.2-1.2-.31-.84-1.1.1-.21.66-.46.78-.38.62.46.08,1,0,1.52Z"/><path class="a" d="M182.92,143.67l.85-2.66c2.24.36.38,1.66.57,2.49l-.05,0Z"/><path class="a" d="M83.85,349.4c-.11.48-.35.77-.69.57a1.13,1.13,0,0,1-.43-.81.43.43,0,0,1,.64-.45C83.61,348.84,83.72,349.2,83.85,349.4Z"/><path class="a" d="M67.9,254.94c-1.3.09-1.86.17-2.43.15-.25,0-.87-.05-.51-.48.21-.26.88-.2,1.34-.19A8.7,8.7,0,0,1,67.9,254.94Z"/><path class="a" d="M191.49,93.5a.53.53,0,0,1-.18-.85c.27-.35.63-.87,1-.87s.21.51.09.8S192.11,93.51,191.49,93.5Z"/><path class="a" d="M97.51,283.85a18,18,0,0,1-.27-2,4.26,4.26,0,0,1,.22-1c.77.27.38.92.43,1.41A6.9,6.9,0,0,1,97.51,283.85Z"/><path class="a" d="M242,326.44c-.34.47-.81.2-1.22.06s-.76-.23-.4-.62c.18-.19.66-.16,1-.13S242.05,325.92,242,326.44Z"/><path class="a" d="M100.7,271.31c-.28.54-.09,1.26-.9,1.31a3.16,3.16,0,0,1,0-1,7.52,7.52,0,0,1,.6-1.16Z"/><path class="a" d="M108,83.76l2.15-2.87,0,0c-.41,1.16.38,3.2-2.09,2.87Z"/><path class="a" d="M200.23,84.47a.87.87,0,0,1-.78.73c-.49.06-1-.12-.74-.72a1.84,1.84,0,0,1,1-.87C200.08,83.48,200.29,83.84,200.23,84.47Z"/><path class="a" d="M13.66,319.93c-.17-1-.85-2-.13-3l.29.22c.47.54,1,1,.7,1.88Z"/><path class="a" d="M19.45,335a1.83,1.83,0,0,1-1.25-1.87c0-.07.42-.26.5-.2.7.52,1.18,1.15.74,2.08Z"/><path class="a" d="M13.66,319.93l.85-.9,1.79,1.71-1.19.62Z"/><path class="a" d="M9.33,99.56a6.21,6.21,0,0,1,0,2c-.15.4-.54-.08-.69-.35-.48-.89.27-1.22.79-1.65Z"/><path class="a" d="M131.37,111.72a10.36,10.36,0,0,1-1.46.08c-.28,0-.85-.19-.33-.56.31-.23.9-.11,1.36-.07C131.05,111.18,131.15,111.44,131.37,111.72Z"/><path class="a" d="M79.59,261.77a8.6,8.6,0,0,1,.23,1.39c0,.24.14.73-.4.59-.09,0-.14-.42-.12-.64A12.32,12.32,0,0,1,79.59,261.77Z"/><path class="a" d="M77,256.61c-.1.3-.15.69-.23.69-.5,0-.4-.4-.37-.66a3.83,3.83,0,0,1,.33-.89Z"/><path class="a" d="M132.24,129.22c-.21.39-.4.83-1,.75-.09,0-.24-.46-.17-.53a9.14,9.14,0,0,1,1-.82Z"/><path class="a" d="M139,129.29c-.08-.18-.26-.37-.22-.51s.25-.45.41-.46c.51-.05.45.33.3.61S139.17,129.18,139,129.29Z"/><path class="a" d="M142.59,131.25c-.55,0-1.23.12-1.39-.63,0-.18.4-.66.57-.64.74.11.7.77.77,1.33Z"/><path class="a" d="M130.35,134.91a1.73,1.73,0,0,1-1.41,1.31c-.42.06-.59-.35-.43-.69.35-.76,1.08-.71,1.77-.72Z"/><path class="a" d="M99.33,227a6.87,6.87,0,0,1-.11,1.42c-.14.48-.06,1.26-1,1.11a7.1,7.1,0,0,1,.33-1.32,7.89,7.89,0,0,1,.79-1.17Z"/><path class="a" d="M185.34,146.33c.14.63.32.94.23,1.15a2.29,2.29,0,0,1-.76,1.1c-.34.21-.73-.2-.59-.56A10.68,10.68,0,0,1,185.34,146.33Z"/><path class="a" d="M101.54,211.2a5.41,5.41,0,0,1,1.28-3.71l.28.23a5.8,5.8,0,0,1-1.61,3.44Z"/><path class="a" d="M122.09,208.1c.15.14.43.29.41.41a.68.68,0,0,1-.4.46c-.36.11-.71,0-.53-.47C121.63,208.31,121.91,208.22,122.09,208.1Z"/><path class="a" d="M100,214.76a4.32,4.32,0,0,1,1.5-3.56l0,0a4.88,4.88,0,0,1-1.38,3.66Z"/><path class="a" d="M66.27,281.74c-.52-.19-1.25,0-1.46-.75,0-.11.24-.44.38-.44.79,0,.8.73,1,1.23Z"/><path class="a" d="M78.42,15.21a4.4,4.4,0,0,1-.81,1.14c-.42.31-.64-.15-.51-.46a5.32,5.32,0,0,1,.81-1.09Z"/><path class="a" d="M203.56,32.82l-.73.35c-.1-.29-.33-.63-.25-.84a.89.89,0,0,1,.74-.43C203.7,32,203.76,32.33,203.56,32.82Z"/><path class="a" d="M80.87,9.17l-.45-.77c.19-.08.46-.27.54-.21a3.29,3.29,0,0,1,.55.68Z"/><path class="a" d="M57.65,44.91c-.13-.64-1-1.06-.52-1.85a.63.63,0,0,1,.61,0c.67.64.33,1.24-.13,1.83Z"/><path class="a" d="M210.33,288.32l1.71.54c.07,1-.56.88-1.17.72S209.78,289.05,210.33,288.32Z"/><path class="a" d="M93.34,276.53a5.94,5.94,0,0,1,.2,1.07c0,.24.12.76-.39.54-.15-.06-.13-.63-.11-1A2.28,2.28,0,0,1,93.34,276.53Z"/><path class="a" d="M163.95,50.49c.24.22.54.44.52.5a5.31,5.31,0,0,1-.56.82c-.13-.16-.39-.34-.36-.46A3.73,3.73,0,0,1,163.95,50.49Z"/><path class="a" d="M13.53,316.93l-.28-1.61c.27.07.61.07.8.23.69.61.5,1.15-.22,1.59Z"/><path class="a" d="M26.4,80.43c-.23.2-.46.47-.51.43a1.54,1.54,0,0,1-.7-.61c-.16-.42.16-.68.54-.54S26.15,80.16,26.4,80.43Z"/><path class="a" d="M119.52,80c-.19-.06-.51-.06-.59-.19-.22-.39.06-.66.42-.75.19,0,.54,0,.61.16C120.15,79.62,119.92,79.89,119.52,80Z"/><path class="a" d="M221.06,70.78c-.77.15-.87,1.44-1.9,1.11a.83.83,0,0,1,0-.61c.45-.77,1-1.38,1.84-.43Z"/><path class="a" d="M221,70.85c.58-.2.42-1.47,1.42-1,.11.05.1.68-.05.93-.39.63-.88,1.27-1.32,0Z"/><path class="a" d="M235,60.83c-.08.19-.13.54-.23.55-.56.06-.86-.33-1-.79-.05-.15.11-.54.2-.55C234.56,60,234.79,60.42,235,60.83Z"/><path class="a" d="M22.36,168.68a2.87,2.87,0,0,1-2.92-1.41h0a3.65,3.65,0,0,1,2.88,1.46Z"/><path class="a" d="M72,149.31l.79-2.06C74.12,148.56,72.4,148.69,72,149.31Z"/><path class="a" d="M72,145.78c-.49-1,.3-1.6.73-2.32C73.58,144.58,72.77,145.17,72,145.78Z"/><path class="a" d="M170.68,14.26l-.27.58a2.51,2.51,0,0,1-.25-.73c0-.14.22-.29.35-.44Z"/><path class="a" d="M131.39,138.23a3.63,3.63,0,0,1-.39-.44,8.61,8.61,0,0,1,.68-.7c.12.13.36.35.34.39A7,7,0,0,1,131.39,138.23Z"/><path class="a" d="M213.75,35.75l-.09.58a2,2,0,0,1-.48-.4c-.15-.24-.38-.6.16-.64C213.47,35.27,213.61,35.58,213.75,35.75Z"/><path class="a" d="M136.79,132.72l-.77,0c.19-.71.15-1.86,1.28-1.39C137.8,131.52,136.95,132.21,136.79,132.72Z"/><path class="a" d="M62.22,47.38l-.7.63c-.1-.15-.31-.33-.27-.43a.82.82,0,0,1,.43-.44C61.78,47.09,62,47.26,62.22,47.38Z"/><path class="a" d="M53.14,123.06c-.14.18-.25.42-.43.51s-.71.26-.69-.3c0-.15.31-.36.5-.4S52.92,123,53.14,123.06Z"/><path class="a" d="M59.52,120.4a4.58,4.58,0,0,1-.78.61c-.08,0-.31-.2-.48-.32a4.72,4.72,0,0,1,.72-.62C59.05,120,59.29,120.25,59.52,120.4Z"/><path class="a" d="M124.52,73.27l-.85.33c0-.2,0-.44.06-.58s.36-.23.55-.35Z"/><path class="a" d="M73.12,116.09l.3.43a2.15,2.15,0,0,1-.65.17c-.11,0-.2-.24-.3-.37Z"/><path class="a" d="M110.16,80.89c.47-.49.37-1.43,1.26-1.56.05,0,.19.18.19.27,0,1-.84,1-1.49,1.26Z"/><path class="a" d="M108,83.72c-1.13-.14-2.36-.1-2.91-1.43l0,.05A4.48,4.48,0,0,1,108,83.76Z"/><path class="a" d="M79.46,350.44c-.08-.19-.25-.39-.21-.52s.29-.28.45-.42c.08.17.27.38.22.51S79.63,350.3,79.46,350.44Z"/><path class="a" d="M70.89,232.28c-.22.17-.42.41-.5.37a1,1,0,0,1-.49-.47c-.05-.13.12-.35.2-.53Z"/><path class="a" d="M57.82,232.47a2,2,0,0,1-.63.19,1.6,1.6,0,0,1-.54-.24,1.89,1.89,0,0,1,.59-.19A1.78,1.78,0,0,1,57.82,232.47Z"/><path class="a" d="M78.52,246.52l.12-2.09c.15,0,.41.05.42.11a2.25,2.25,0,0,1-.58,1.94Z"/><path class="a" d="M81.32,250l-.12,2.05-.4-.09.55-1.94Z"/><path class="a" d="M122.21,338.66l-.46.49c-.09-.16-.27-.34-.24-.46s.27-.35.41-.53Z"/><path class="a" d="M107.51,252.31l-.52.44c-.06-.21-.2-.43-.16-.62.07-.35.29-.66.71-.45C107.62,251.72,107.52,252.09,107.51,252.31Z"/><path class="a" d="M244,335.74l.62,1.11a.9.9,0,0,1-1.24-.28c-.41-.71.25-.7.68-.8Z"/><path class="a" d="M84.84,253.38l-.28.58a1.78,1.78,0,0,1-.22-.6c0-.25-.15-.71.39-.61C84.8,252.76,84.81,253.16,84.84,253.38Z"/><path class="a" d="M91.66,254.05c.19.21.42.35.42.47a4.73,4.73,0,0,1-.21.92c-.13-.13-.36-.25-.37-.38A5.44,5.44,0,0,1,91.66,254.05Z"/><path class="a" d="M59,254.89l-.31.46a3.48,3.48,0,0,1-.4-.34s.1-.24.15-.24A3.23,3.23,0,0,1,59,254.89Z"/><path class="a" d="M55.66,255.37c-.18.13-.32.3-.47.32a2.22,2.22,0,0,1-.65-.13c.14-.11.27-.3.42-.32A2.44,2.44,0,0,1,55.66,255.37Z"/><path class="a" d="M86.25,277.34l-.26.56c-.15-.13-.36-.24-.42-.41-.12-.33,0-.65.38-.64C86.05,276.85,86.15,277.17,86.25,277.34Z"/><path class="a" d="M217.5,301.43c-.16-.12-.47-.26-.46-.38,0-.47.41-.37.67-.25s.24.31.35.47Z"/><path class="a" d="M42.36,353.08l-1.52.61.36-1.35C41.8,352.24,42.33,352.27,42.36,353.08Z"/><path class="a" d="M35.24,349.45l-1.61.6.24-1.37-.05.07.85-.71Z"/><path class="a" d="M47.53,358.08l-.08-1.45a1.64,1.64,0,0,1,1.61,0l-.38.82Z"/><path class="a" d="M85,358.07q0,.73,0,1.47h-.82l.06-1.45Z"/><path class="a" d="M86.36,360.24q0-.73,0-1.46h.75q0,.74,0,1.47Z"/><path class="a" d="M17.2,325.68h-.54l-.07-1.48,0,0Z"/><path class="a" d="M87.86,360.25l-.1-1.49,1,.75-.21.73h0l-.74,0Z"/><path class="a" d="M86.44,358.83l-.72-.74Z"/><path class="a" d="M77.16,375.4l-3.29-1.65c.2-.95,1.47-2.52-1.08-1.84a3.31,3.31,0,0,0-2.06-1.59l-.07-.77c1.33-.51,1.56-1.76,1.94-2.91a3.31,3.31,0,0,1,3.56.09l.94.61.31,0,.31,0h.79l1.39,1.49,1.28-.67.92,0h1.49l.8-.08.18,0h.19l.84.09.08.72a3.38,3.38,0,0,0-1.43,2.91v1.43l-1.35.72-.83.73C80.2,373.38,78.81,375.22,77.16,375.4Z"/><path class="a" d="M60.44,368.67c-.52-1.82-4-.54-3.55-3.35l0,0h.62l.74,0,.66,0,1,0h.35l.78-.07.77,0,.77-.76,0,0h.74l.72,2.14,0,1.19v1l0,0-.65.05-1,.09-.22,0-1-.13Z"/><path class="a" d="M89.28,376.8c-2.63,4.62-3.44,4.79-7.08,1.47l1.31-1.65.81.2H85.8l.76-.14.57-.61Z"/><path class="a" d="M89.28,376.8l-2.14-.73q-.06-.34-.1-.68l1.54-.78,2.78-2.14.6.65.95.06v0C92.18,374.86,91.72,376.81,89.28,376.8Z"/><path class="a" d="M166.36,133.43h2.1l1.46,2.17-2,.7-2.29-.82-1.54-2A3.07,3.07,0,0,1,166.36,133.43Z"/><path class="a" d="M141.12,216.33c-1.05-1.49.26-2.54.85-3.61.23-.42.86.5,1.34.75l0,2.66V217l.06-.06-1.5.05Z"/><path class="a" d="M97.49,368.88c.26,2.82-1.45,3.54-3.81,3.59l0-.75c.68-.84,1.07-2,2.44-2Z"/><path class="a" d="M81.25,327.64l.93.3.74,2.08c-1.15.66-2.32,0-3.47,0l-.28-1.43.05-.06h1.5Z"/><path class="a" d="M78.3,379.68v-2.2c1,.16,2.21-.16,3.06.76-.84.89-1.56,1.94-2.9,2.16Z"/><path class="a" d="M70.73,370.32a3.31,3.31,0,0,1,2.06,1.59l-.08,1.29a2,2,0,0,1-2.12-1.91Z"/><path class="a" d="M82.91,330l-.74-2.08c.91-.95,1.88,0,2.81-.08l0,0c-.6,1,0,2-.09,2.94Z"/><path class="a" d="M138.28,210.46h.66l0,1.58-1.47.34A1.24,1.24,0,0,1,138.28,210.46Z"/><path class="a" d="M134.81,236.14l-1.34-.25c.06-.21.07-.55.2-.6a1.48,1.48,0,0,1,1.62.43A3.09,3.09,0,0,0,134.81,236.14Z"/><path class="a" d="M138.39,222.72l-.16-.76.75-.7,0,0,1.48,0,0,.77,0-.06-1.14.77Z"/><path class="a" d="M61.19,368.88l1,.13,0,1.2-1.6.85,0-1.51,0,.08Z"/><path class="a" d="M75.56,327.85l1.31.66V330h-.41l-.9-.79,0,.06Z"/><path class="a" d="M62.41,369l1-.09.07,1.34-1.11,0Z"/><path class="a" d="M64,370.28l.12-1.43,0,0h.77l0,0,.15,1.39Z"/><path class="a" d="M78.68,328.63l-.4,1.43H78l-.29-1.45Z"/><path class="a" d="M68.57,134.92l-.2-.79h1.49l-.23.74Z"/><path class="a" d="M77.14,381.14l.57-1.45.21,1.31Z"/><path class="a" d="M55.33,363.93l-.62-.1q0-.72,0-1.44h.73l0,1.47Z"/><path class="a" d="M54.06,362.38l.13,1.39h-1.1l.16-1.4Z"/><path class="a" d="M76.17,380.46a2.8,2.8,0,0,1,.15.69l.05,0-.79,0Z"/><path class="a" d="M141.11,218.38l.79.33,0,.07-.76.34Q141.11,218.75,141.11,218.38Z"/><path class="a" d="M141.9,220.35l-.79.19,0,0v-.76l0,0,.8.21Z"/><path class="a" d="M68.32,139.92a1.76,1.76,0,0,1,0,.65A.64.64,0,0,1,68.32,139.92Z"/><path class="a" d="M56.15,363.82l-.79.43,0-.32.09-.08h.75Z"/><path class="a" d="M55.43,360.26l.72-2.19.77-.28,0,1.81-.78.65.05,0Z"/><path class="a" d="M53.29,358.77q0,.73,0,1.45h-.73l0,0,0-1.46Z"/><path class="a" d="M72,301c-.48.24-.79.53-1,.47s-.37-.45-.48-.72c0,0,.36-.37.5-.33A4.48,4.48,0,0,1,72,301Z"/><path class="a" d="M92.91,360.86a3.61,3.61,0,0,1-1.61,2.21l-1.82-.67-.16-.92,0-1.1A7,7,0,0,1,92.91,360.86Z"/><path class="a" d="M89.28,360.38l0,1.1-.78.22,0-1.47h0Z"/><path class="a" d="M76.16,366.72a3.31,3.31,0,0,0-3.56-.09l-2-2.58a4.81,4.81,0,0,1,2.79-1.78l2.2.77a2.6,2.6,0,0,0,.7.09l0,0,.34,1.48Z"/><path class="a" d="M77,360.63l.71,1.8,0,0H77l0,0Z"/><path class="a" d="M76.35,362.4a6.68,6.68,0,0,0,.71,0l0,0,0,.74-.75,0,0,0Z"/><path class="a" d="M70.36,360.12c-.19,1.62-1.44,2.07-2.72,2.5L67,360.73l-.1-.91,2.63-.14Z"/><path class="a" d="M65.65,357.54a1.32,1.32,0,0,1,.57,0l-.28.07Z"/><path class="a" d="M83.52,361.68,80.44,361l.19-1.52,2.94,0Q83.54,360.59,83.52,361.68Z"/><path class="a" d="M78.79,362.37l-1,.76,0-.74,0,0Z"/><path class="a" d="M87,361l.13-.76.75,0,0,0q0,.75,0,1.5Z"/><path class="a" d="M158.92,289.09c.07.46.15,1.07-.41,1.17s-.75-.53-.81-1C156.42,278.6,152,269.08,147,259.78c-.25-.47-.77-1-.21-1.58a1.41,1.41,0,0,1,.79.5C153,268.19,157.55,278,158.92,289.09Z"/><path class="a" d="M144.32,293.47c-.65.56-1.33,1.12-2.2.62s-2-1.21-1.73-2c.33-1.18,1.61-.36,2.4-.24A1.58,1.58,0,0,1,144.32,293.47Z"/><path class="a" d="M134.33,302.26a2.7,2.7,0,0,1-1.75-2,1.29,1.29,0,0,1,1.13-1.53,1.35,1.35,0,0,1,1.54,1.52C135.24,301,135.34,301.87,134.33,302.26Z"/><path class="a" d="M157.65,301.16a10,10,0,0,1-.86,1.12,1.53,1.53,0,0,1-2.47.07c-.28-.31-.54-1-.38-1.25.52-.76,1.5-.65,2.29-.69.48,0,1,.52,1.47.8Z"/><path class="a" d="M139.24,297.45c-.6.55-.53,1.81-1.25,1.64-1.09-.26-1.36-1.54-1.68-2.51-.23-.7.24-1.14,1-.84S139.06,296.38,139.24,297.45Z"/><path class="a" d="M161,296.83c-.75.12-1.18-.23-1.07-1s.24-1.75,1.27-1.82a1.23,1.23,0,0,1,1.23,1.08C162.54,296.14,161.8,296.56,161,296.83Z"/><path class="a" d="M147.47,289.91c-.78.71-1.44,1.63-1.76,1.53-.94-.31-1.18-1.41-1.55-2.28-.21-.5,0-1.17.54-1A17.12,17.12,0,0,1,147.47,289.91Z"/><path class="a" d="M144.84,301.06a5.93,5.93,0,0,1-1.66,1.07c-.63.15-1.05-.47-1.15-1.07s.4-1.11,1-1.07A1.86,1.86,0,0,1,144.84,301.06Z"/><path class="a" d="M149.28,295.68c-.14.51-.14,1.25-.9,1.2a1.4,1.4,0,0,1-1-.84c-.22-.71.37-1.06,1-1.18S149.21,295.12,149.28,295.68Z"/><path class="a" d="M150,293.54c.14-.19.31-.62.49-.63.82,0,1.24.59,1.45,1.26.12.39-.22.67-.63.6A1.78,1.78,0,0,1,150,293.54Z"/><path class="a" d="M184.36,283.2a4.9,4.9,0,0,1-3.7,1.61C181.52,283.4,182.57,282.46,184.36,283.2Z"/><path class="a" d="M146.15,299.65a1.74,1.74,0,0,1-1.49-1.28c-.14-.37.14-.85.46-.71a4.86,4.86,0,0,1,1.63,1.26C147,299.19,146.61,299.57,146.15,299.65Z"/><path class="a" d="M148.52,287.33c.11,0,.26,0,.33.12.67.75,1.88-.29,2.4.75.06.12-.37.6-.65.76-1.41.78-1.87-.41-2.5-1.25Z"/><path class="a" d="M166.37,293.61c-.29-.31-.62-.5-.69-.76-.16-.56.17-.87.74-.85.39,0,.69.27.58.67A3.9,3.9,0,0,1,166.37,293.61Z"/><path class="a" d="M154.19,291.78c0,.64-.27,1-.61.75a3.46,3.46,0,0,1-1.22-1.22c-.16-.29.29-.77.63-.59A6.06,6.06,0,0,1,154.19,291.78Z"/><path class="a" d="M147.71,304.51a1.56,1.56,0,0,1-1,1.26c-.43.14-.64-.21-.59-.58a1.43,1.43,0,0,1,1-1.26C147.51,303.8,147.69,304.11,147.71,304.51Z"/><path class="a" d="M140.56,305a1.15,1.15,0,0,1-1.09-.77c-.22-.55,0-.95.55-1a.91.91,0,0,1,1.1.67A.86.86,0,0,1,140.56,305Z"/><path class="a" d="M141.3,312.74c.62.33.48.81.41,1.23s-.16.82-.57.53a1.63,1.63,0,0,1-.45-1.15C140.69,313.15,141.1,312.93,141.3,312.74Z"/><path class="a" d="M145.7,314.1a4.21,4.21,0,0,1-1,.61c-.36.08-.66-.12-.55-.54a.65.65,0,0,1,.48-.39A4.17,4.17,0,0,1,145.7,314.1Z"/><path class="a" d="M148.95,310.05l-.52-.21a7.63,7.63,0,0,1,.69-1.57c.36-.49.53,0,.54.28A1.5,1.5,0,0,1,148.95,310.05Z"/><path class="a" d="M144.89,308.53c-.3.31-.62.88-1.11,1.09s-.47-.43-.31-.72a2.9,2.9,0,0,1,.89-1.07C144.8,307.57,145,307.91,144.89,308.53Z"/><path class="a" d="M157.69,301.22c.34-.6.55-1.38,1.06-1.73.27-.19.55.68.49,1.09-.15,1.11-.91.79-1.6.58Z"/><path class="a" d="M143.36,251.43a14.39,14.39,0,0,1,1,1.51c.17.36,0,.81-.44.5a4.56,4.56,0,0,1-1-1.46C142.88,251.93,143.13,251.71,143.36,251.43Z"/><path class="a" d="M190.83,283.17c-.67-.1-1.47,0-1.81-.78-.15-.35.19-.86.44-.69a8.15,8.15,0,0,1,1.33,1.51Z"/><path class="a" d="M138.71,318.51a.56.56,0,0,1-.33-.83,1.44,1.44,0,0,1,.69-.72c.42-.13.58.26.53.61A1,1,0,0,1,138.71,318.51Z"/><path class="a" d="M148.1,287.71a3.68,3.68,0,0,1-.81-.67c-.33-.49-1.45-.93-.51-1.61.5-.36.93.5,1.25,1a8.41,8.41,0,0,1,.49.93Z"/><path class="a" d="M156.47,295.14l-.8,1a3.07,3.07,0,0,1-.2-.89c0-.4-.08-1,.59-1C156.2,294.3,156.31,294.79,156.47,295.14Z"/><path class="a" d="M151.71,301.82c.19.22.45.44.42.51-.15.3-.33.69-.61.81-.52.23-.59-.21-.45-.55A3.41,3.41,0,0,1,151.71,301.82Z"/><path class="a" d="M133.5,240.94c-.12-.15-.34-.31-.32-.44a.66.66,0,0,1,.35-.48c.42-.09.58.19.45.55C133.92,240.73,133.67,240.82,133.5,240.94Z"/><path class="a" d="M140.85,295.17l.51.54c-.14.13-.34.4-.42.36a1,1,0,0,1-.47-.47C140.44,295.54,140.7,295.34,140.85,295.17Z"/><path class="a" d="M164.12,254.21a25.92,25.92,0,0,1,6.53,10.32A39.32,39.32,0,0,1,164.12,254.21Z"/><path class="a" d="M159,244.39c.6,3,3.27,5,3.8,8.07a13,13,0,0,1-4.46-7.27Z"/><path class="a" d="M159,244.39l-.66.8c-.72-.46-1.74-1.2-1.4-1.84.5-.93,1.3.55,2.09.3Z"/><path class="a" d="M185,276.72c-.38.79-.49,1.77-1.44,2.18-2.14-5.12-5-9.91-6.81-15.19,2,.66,2.18,2.72,3.09,4.2.67,1.09.76,2.59,2.37,2.89,0,.84-.11,1.69.65,2.3l.68,2.11.06.09a1.68,1.68,0,0,0,1.42,1.44Z"/><path class="a" d="M79.43,321.88c-2.23-1.58-4.84-1-7.46-.59a.83.83,0,0,1-1-.8,1,1,0,0,1,.89-.95,9.1,9.1,0,0,0,6.42-3.28c.7-.85,2-.61,3,.18a3.21,3.21,0,0,1,.8,3.63A2.45,2.45,0,0,1,79.43,321.88Zm1.52-3.25a1.5,1.5,0,0,0-1.58-1.42,1.26,1.26,0,0,0-1.43,1.26,1.44,1.44,0,0,0,1.5,1.64C80.21,320.14,80.73,319.58,80.94,318.63Z"/><path class="a" d="M77,313.43a21.53,21.53,0,0,1-2.33.78,8.23,8.23,0,0,1-2.43.22c-.38,0-.24-.56,0-.8a2.44,2.44,0,0,1,2.64-.44,10.4,10.4,0,0,0,2.12.28Z"/><path class="a" d="M181.45,260.85l-.22,2.57a5.46,5.46,0,0,1-.29.57c-.47.15-1.28.8-1-.41A4.47,4.47,0,0,1,181.45,260.85Z"/><path class="a" d="M184.48,267.77l-.91.45c.16-1.39.34-2.77,1.49-3.77l-.24,2.61Z"/><path class="a" d="M180.95,264a5.46,5.46,0,0,0,.29-.57l.94-.39c-.26.65.2,1.66-.93,1.83A4.89,4.89,0,0,1,180.95,264Z"/><path class="a" d="M69.46,189.45c2.33,0,3.69.23,4.36,1.85a2.72,2.72,0,0,1-.56,3.27,3,3,0,0,1-3.92.52A8.17,8.17,0,0,0,65,194c-1-.06-1.8-1.25-.85-1.48C66.46,191.9,68,189.81,69.46,189.45Zm3,2.32a1.55,1.55,0,0,0-1.68-1.16,1.58,1.58,0,0,0-1.51,2c.13,1,.88,1.31,1.79,1.16S72.49,193,72.48,191.77Z"/><path class="a" d="M93.64,371.72l-1,0-.42,0-.85.74-2.78,2.14a2.68,2.68,0,0,0-2.19-2.14l-.62-.67-.79-.06-.73,0a3.38,3.38,0,0,1,1.43-2.91l4.27-.81,3.08,0h.22l.22,0h1l.32,0,1.09,0a1.68,1.68,0,0,1,.58.08l0,0-.39,1.55C94.71,369.71,94.32,370.88,93.64,371.72Z"/><path class="a" d="M68.38,363.82l2.27.23,2,2.58c-.38,1.15-.61,2.4-1.94,2.91l-.83.31a6.38,6.38,0,0,0-2.38-3l.23-1.59Z"/><path class="a" d="M89.95,368.05l-4.27.81-.08-.72.08-1.1,3.63-1,0,0Z"/><path class="a" d="M80.4,366.65l1,.06-.19,1.49-1.28.67v-1.42Z"/><path class="a" d="M85.68,367l-.08,1.1-.84-.09.29-1.25A4,4,0,0,1,85.68,367Z"/><path class="a" d="M84.2,366.73l.19,1.37-.8.08q0-.73,0-1.45h.65Z"/><path class="a" d="M82.9,373.93l-.09,1.44-.75-.71Z"/><path class="a" d="M82.77,366.72q0,.72,0,1.45H82.1l0-1.42Z"/><path class="a" d="M64.08,366.72l-.72-2.14.1,0,.73-.08a1.06,1.06,0,0,1,.41-.05l1.15,0H66l.22.05.47.09.47-.06-1.75,2.87Z"/><path class="a" d="M64.08,366.72l1.3.72.3.7-.16.76-.74,0,0,0-.78-1Z"/><path class="a" d="M61.27,363.86l1.38-.76,0,1.47,0,0-.77.76-.77,0Z"/><path class="a" d="M60.4,363.87l0,1.45H60l-.2-1.47A2.11,2.11,0,0,0,60.4,363.87Z"/><path class="a" d="M59.06,363.83,59,365.3l-.66,0-.13-1.48Z"/><path class="a" d="M57.83,363.79l-.28,1.5h-.62l-.08-1.49Z"/><path class="a" d="M86.56,376.68l-.76.14-.25-1.42,1,0Z"/><path class="a" d="M84.33,376.83l.1-1.47H85l-.2,1.48Z"/><path class="a" d="M139,220.56l1.44-.7,0,0v.76l0,0h-1.47Z"/><path class="a" d="M140.35,218.88l.8.21,0,.76,0,0h-.76l0,0Z"/><path class="a" d="M139,221.26a3.71,3.71,0,0,0-.66-.11l.66-.59,0,0v.76Z"/><path class="a" d="M141.15,218.42l-.79.22,0-1.07.77.07Z"/><path class="a" d="M85.55,375.41a2.56,2.56,0,0,1-.57,0h-.55l-.12-.2a1.83,1.83,0,0,1,0-.36l-.07-1.62.81,0,.72-.06.64-.68a2.68,2.68,0,0,1,2.19,2.14L87,375.4a1.57,1.57,0,0,1-.46,0Z"/><path class="a" d="M92,373.12l.25-1.38.42,0,.28,1.48Z"/><path class="a" d="M89.95,368.05l-.59-2c.67-1,1.76-1.13,2.76-1.46l.77,0,0,.73a.86.86,0,0,0,0,1.38l.13,1.38Z"/><path class="a" d="M92.12,364.58c-1,.33-2.09.5-2.76,1.46l0,0-.3-2.89.48-.73,1.82.67Z"/><path class="a" d="M92.85,365.34l0-.73a4.65,4.65,0,0,0,1.41-2.3l1.64.8a2.91,2.91,0,0,1-1.61,2.44,5.49,5.49,0,0,0-.6-.23l-.88,0Z"/><path class="a" d="M187.21,271.64l0,2.19L185,276.72l0,0,0-2.48.53-.82Z"/><path class="a" d="M80.66,327.1q0,.72,0,1.44h-.84q0-.71,0-1.43Z"/><path class="a" d="M184.48,267.77l.34-.71,1-.44-.07,2.2,0-.05-1.47,1.45,0,0Z"/><path class="a" d="M187.19,269.51l-1.46,1.41,0,0q0-1.1,0-2.2l0,.05,1.47-1.49Z"/><path class="a" d="M185.6,273.44l-.53.82-1.44,1-.06-.09.77-2.83,0,0,1.47-1.46,0,0Z"/><path class="a" d="M53.29,360.93q0,.74,0,1.49l-.75,0,0,0q0-.73,0-1.46h0Z"/><path class="a" d="M51.82,363.14l0-.76,0,0h.75l0,0Z"/><path class="a" d="M51.85,362.38l-.75,0q0-.74,0-1.47l.75,0,0,0v1.47Z"/><path class="a" d="M51.86,361l.73-.73,0,0q0,.37,0,.74h-.73Z"/><path class="a" d="M56.88,362.4q0,.73,0,1.45l-.75,0,0,0q0-.73,0-1.47Z"/><path class="a" d="M96.54,366.74a4.82,4.82,0,0,0,.64,0q0,.73,0,1.45l-.75,0,0,0Z"/><path class="a" d="M141.12,217.68q0-.36,0-.72h.72c0,.24,0,.48,0,.73Z"/><path class="a" d="M140.39,221.29l0-.75,0,0h.76l0,0q0,.37,0,.74Z"/><path class="a" d="M71.36,213.22c.06,2.91-2.7,4.74-5.14,3.13a8.5,8.5,0,0,0-5.33-1.54c-.49,0-1.37.19-1.31-.73a1.29,1.29,0,0,1,1.13-1.24c2.38,0,4.21-1.28,6.24-2.21A3,3,0,0,1,71.36,213.22Zm-1.73.54a1.82,1.82,0,0,0-1.68-2,1.63,1.63,0,0,0-2,1.48,1.78,1.78,0,0,0,1.69,1.93A1.64,1.64,0,0,0,69.63,213.76Z"/><path class="a" d="M63.38,363.14h-.76c.09-.54.25-1,1-.75Z"/><path class="a" d="M56.85,360.31l0,1.37h-.74l0-1.48-.05,0Z"/><path class="a" d="M55.4,361.43l.79.23v.76h-.76Z"/><path class="a" d="M67.22,363.07l-.56,1.55-.47-.09L66,363.05Z"/><path class="a" d="M65.68,363.08l.06,1.4-1.15,0v-1.4Z"/><path class="a" d="M64.27,363.07l-.08,1.44-.73.08-.12-1.5Z"/><path class="a" d="M84.26,363.83v1.45a2.27,2.27,0,0,0-2.24.12l0-1.65Z"/><path class="a" d="M77,363.09h.77l.11.75-.92.75Z"/><path class="a" d="M88.71,363.17l-.89-1.51h.76Z"/><path class="a" d="M184.34,272.38l-1.49.77a6.38,6.38,0,0,1,1.48-2.9l0,0v2.2Z"/><path class="a" d="M95.76,366.71l.16,1.39-1.09,0L95,366.7Z"/><path class="a" d="M94.35,366.7l.16,1.39h-1l.11-1.41h.76Z"/><path class="a" d="M85.76,373.15l-.72.06q0-.73-.06-1.46l.79.06Z"/><path class="a" d="M80.11,366.67l-.18.8-.84-.78Z"/><path class="a" d="M84.29,374.79a1.83,1.83,0,0,0,0,.36,6.18,6.18,0,0,1-.7.14Z"/><path class="a" d="M92.86,366.73q0-.72,0-1.43l.88,0-.1,1.42Z"/></svg>