<?xml version="1.0" encoding="utf-8"?>
<!-- Generator: Adobe Illustrator 21.0.2, SVG Export Plug-In . SVG Version: 6.00 Build 0)  -->
<svg version="1.1" id="Layer_1" xmlns="http://www.w3.org/2000/svg" xmlns:xlink="http://www.w3.org/1999/xlink" x="0px" y="0px"
	 viewBox="0 0 99.1 52.1" style="enable-background:new 0 0 99.1 52.1;" xml:space="preserve">
<style type="text/css">
	.st0{fill:#FFFFFF;}
	.st1{fill:#999999;}
</style>
<title>Asset 1</title>
<path class="st0" d="M49.5,52c-15.8,0-31.7,0-47.5,0c-1.7,0-2.1-0.3-2.1-2C0.1,34,0.1,18,0,2C0,0.3,0.3,0,2,0
	c31.7,0.1,63.3,0.1,95,0c1.7,0,2.1,0.3,2.1,2c-0.1,16-0.1,32,0,48c0,1.7-0.3,2.1-2.1,2C81.2,52,65.4,52,49.5,52z"/>
<path class="st1" d="M23,19c1.9-0.1,3.2-1.7,5-2.2c2.2-0.6,3-1.9,3.2-4.4c0.3-3.5,1.7-6.8,4-9.5c1.3-1.6,2.9-2.4,4.7-0.9
	c2.6,2,5.6,3.7,8.7,4.8c2.1,0.9,2.2,2.3,0.3,3.7c-1.2,0.8-2.2,2-2.8,3.4c-1.1,2.8-2.8,4.9-5.9,5.6c-1.5,0.4-1.8,1.3-2,2.9
	c-0.5,3.6-3.3,6.3-6.8,6.9c-2.5,0.4-7.1-2.2-8.3-4.6c-1-2-0.2-3.9,0-5.9L23,19z"/>
<path class="st1" d="M70.2,13.1c-0.3,2.7-2.7,4.7-5.2,6.3c-2.5,1.5-4.3,2.9-4.6,6.3c-0.3,3.6-7.1,8.2-10.9,8c-1.8,0-3.2-1.4-3.2-3.1
	c0,0,0,0,0,0c-0.4-2.9,0.9-5.7,3.5-7.1c2.2-1.4,3.7-2.5,3.1-5.8c-0.6-3.5,1.7-6.7,3.8-9.4s5-2.9,8-1.5c1.2,0.6,2.4,1.2,3.5,1.9
	C70,9.7,70.4,10.6,70.2,13.1z"/>
<path class="st1" d="M62.8,43.9c-0.2-8.9,4.9-14.9,11-20.4c2.3-2.1,5-3.9,7.1-6.3c1.2-1.4,0.9-2.5-0.8-2.9c-2-0.5-3.6-1.7-5.4-2.6
	c-0.7-0.2-1.1-0.9-1-1.5c0.2-0.8,1-1.4,1.8-1.3c0.8,0,1.7,0.1,2.5,0.2c5.2,1.1,10.4,2.3,15.8,1.9c0.5,0,1,0,1.5,0.1
	c0.7,0,1.3,0.5,1.5,1.1c0.2,0.8-0.1,1.7-0.8,2.2c-0.7,0.5-1.4,0.9-2.2,1.1c-2.9,0.9-5.2,2.9-7.6,4.7c-1.8,1.4-3.4,3.3-5.3,4.5
	c-6,3.5-9.8,8.8-12.8,14.9c-0.9,1.6-1.5,3.3-1.9,5.1c0,1-0.4,2-1,2.8c-0.5,0.5-1,1-1.7,0.8c-0.3-0.1-0.6-0.8-0.6-1.3
	C62.7,45.9,62.8,44.9,62.8,43.9z"/>
<path class="st1" d="M23.1,18.9c-2.9,4.3-5.9,8.5-10.6,11.1c-3.4,1.9-6.2,1.4-8.4-1.4c-1.1-1.3-1-2.5,0.7-3.1
	c4.6-1.6,7.6-5.3,11.2-8.2c2.1-1.7,5.2-2.4,5.8-5.7c0.2-0.9,1.4-0.4,1.9,0.4c0.5,0.9,0.7,1.9,0.4,2.9c-0.3,1.5-0.7,2.9-1.1,4.3
	L23.1,18.9z"/>
<path class="st0" d="M37.3,15c-0.2,0-0.3-0.1-0.5-0.1c-1.2-0.9-0.9-2-0.2-3c0.8-1.1,1.1-2.9,3.1-2.5c0.4,0.1,1,0.7,0.9,1
	c-0.3,1.7-1.1,3.3-2.3,4.6C38.1,15.1,37.6,15,37.3,15z"/>
<path class="st0" d="M64.5,13.1c-0.2,0.9-4,3.8-5,3.6c-0.5-0.1-0.9-0.4-1.1-0.9c-0.8-1.4-0.2-3.1,1.5-4.2s3.5-0.9,4.4,0.5
	C64.4,12.5,64.5,12.8,64.5,13.1z"/>
</svg>
